<?xml version="1.0" standalone="no"?>
<!DOCTYPE svg PUBLIC "-//W3C//DTD SVG 1.1//EN" "http://www.w3.org/Graphics/SVG/1.1/DTD/svg11.dtd" >
<!--
2013-9-30: Created.
-->
<svg>
<metadata>
Created by iconfont
</metadata>
<defs>

<font id="iconfont" horiz-adv-x="1024" >
  <font-face
    font-family="iconfont"
    font-weight="500"
    font-stretch="normal"
    units-per-em="1024"
    ascent="896"
    descent="-128"
  />
    <missing-glyph />
    
    <glyph glyph-name="degree" unicode="&#58881;" d="M722.718701 491.274348c-53.193503 0-96.322789-43.128263-96.322789-96.321766l0-192.597483c0-53.193503 43.128263-96.322789 96.322789-96.322789 53.192479 0 96.29823 43.128263 96.29823 96.322789l96.321766 0c0-106.388029-86.234013-192.621019-192.619996-192.621019S530.096658 95.96707 530.096658 202.355099L530.096658 394.952582c0 106.387006 86.235037 192.644555 192.621019 192.644555s192.619996-86.257549 192.619996-192.644555L819.016931 394.952582C819.016931 448.146085 775.91118 491.274348 722.718701 491.274348zM265.234315 250.492446c-93.076862 0-168.540577 75.463716-168.540577 168.540577 0 93.100398 75.463716 168.564114 168.540577 168.564114 93.089142 0 168.540577-75.463716 168.540577-168.564114C433.774893 325.956162 358.323457 250.492446 265.234315 250.492446zM265.234315 491.274348c-39.883359 0-72.230068-32.335453-72.230068-72.242348 0-39.883359 32.346709-72.217788 72.230068-72.217788 39.895639 0 72.241324 32.334429 72.241324 72.217788C337.476663 458.939919 305.129954 491.274348 265.234315 491.274348z"  horiz-adv-x="1024" />

    
    <glyph glyph-name="Off-line" unicode="&#58931;" d="M532.15-142.177c-237.22 0-430.205 192.977-430.205 430.186 0 237.191 192.985 430.168 430.205 430.168 237.219 0 430.205-192.977 430.205-430.168 0-237.209-192.987-430.186-430.205-430.186v0zM532.15 679.661c-215.986 0-391.69-175.694-391.69-391.652 0-215.976 175.704-391.676 391.69-391.676 215.985 0 391.689 175.7 391.689 391.676 0 215.958-175.704 391.652-391.689 391.652v0zM673.26 170.405l-117.584 117.587 117.584 117.602-23.515 23.518-117.587-117.603-117.602 117.602-23.518-23.518 117.602-117.601-117.601-117.587 23.518-23.516 117.602 117.584 117.586-117.583 23.515 23.515zM673.26 170.405z"  horiz-adv-x="1024" />

    
    <glyph glyph-name="tingzhi1" unicode="&#59067;" d="M655.1677 461.858388 368.8323 461.858388c-10.435677 0-18.894326-8.459672-18.894326-18.894326l0-285.926078c0-10.435677 8.459672-18.894326 18.894326-18.894326l286.335401 0c10.435677 0 18.894326 8.459672 18.894326 18.894326L674.062026 442.963039C674.062026 453.398716 665.602354 461.858388 655.1677 461.858388zM512 700.297942c-220.713844 0-400.297942-179.585121-400.297942-400.298965 0-220.713844 179.585121-400.296919 400.297942-400.296919s400.297942 179.584098 400.297942 400.296919C912.297942 520.713844 732.712821 700.297942 512 700.297942zM512-54.61346c-195.544605 0-354.611413 159.068855-354.611413 354.612437 0 195.544605 159.066809 354.612437 354.611413 354.612437 195.543581 0 354.611413-159.067832 354.611413-354.612437C866.611413 104.456419 707.543581-54.61346 512-54.61346z"  horiz-adv-x="1024" />

    
    <glyph glyph-name="icon02" unicode="&#58882;" d="M510.352119-100.416237c-220.548741 0-399.339141 178.82643-399.339141 399.403615S289.803378 698.377719 510.352119 698.377719c220.550637 0 399.341037-178.813156 399.341037-399.390341S730.902756-100.416237 510.352119-100.416237zM510.352119 648.455822c-192.982281 0-349.421037-156.461511-349.421037-349.468444S317.369837-50.482963 510.352119-50.482963s349.421037 156.463407 349.421037 349.470341S703.3344 648.455822 510.352119 648.455822zM660.104533 274.020741 535.313067 274.020741l0-124.81043c0-13.778489-11.174874-24.957156-24.959052-24.957156-13.784178 0-24.957156 11.178667-24.957156 24.957156l0 124.81043-124.795259 0c-13.784178 0-24.959052 11.17677-24.959052 24.966637 0 13.780385 11.17677 24.957156 24.959052 24.957156l124.795259 0 0 124.816119c0 13.778489 11.174874 24.951467 24.957156 24.951467 13.786074 0 24.959052-11.171081 24.959052-24.951467l0-124.816119 124.791467 0c13.786074 0 24.959052-11.17677 24.959052-24.957156C685.063585 285.197511 673.890607 274.020741 660.104533 274.020741z"  horiz-adv-x="1024" />

    
    <glyph glyph-name="xiaoshi" unicode="&#58900;" d="M512 693.216C295.168 693.216 118.784 516.832 118.784 300S295.168-93.216 512-93.216 905.216 83.168 905.216 300 728.832 693.216 512 693.216zM512-55.84c-196.224 0-355.84 159.616-355.84 355.84s159.616 355.84 355.84 355.84 355.84-159.616 355.84-355.84S708.224-55.84 512-55.84zM714.496 250.208 481.792 250.208 481.792 477.024l-37.376 0L444.416 212.96l270.08 0L714.496 250.208z"  horiz-adv-x="1024" />

    
    <glyph glyph-name="fankui" unicode="&#58925;" d="M0 398.466816C0 212.104789 100.657778 53.62907 272.248889 2.6176 270.897778-3.503758 270.222222-8.94501 270.222222-15.066368L270.222222-160.619207C270.222222-209.590244 304.675556-212.991004 339.804444-178.303175L540.444444-4.183922 663.395556-4.183922C893.76-4.183922 1080.888889 180.817778 1080.888889 409.349262 1080.888889 637.880747 893.76 812 663.395556 812L417.493333 812C187.128889 812 0 626.9983 0 398.466816L0 398.466816ZM270.222222 539.938674 810.666667 539.938674 810.666667 471.923342 270.222222 471.923342 270.222222 539.938674 270.222222 539.938674ZM270.222222 403.908011 810.666667 403.908011 810.666667 335.892679 270.222222 335.892679 270.222222 403.908011 270.222222 403.908011ZM270.222222 267.877348 608 267.877348 608 199.862073 270.222222 199.862073 270.222222 267.877348 270.222222 267.877348Z"  horiz-adv-x="1081" />

    
    <glyph glyph-name="wendu" unicode="&#58902;" d="M1016.687454 132.916611c-0.427742-0.887206-0.927115-1.747807-1.272993-2.665713-5.392824-14.307867-20.705578-18.797112-33.508161-10.416234-10.936073 7.15905-21.801539 14.936177-33.739429 19.968797-47.729048 20.12127-91.690282 10.918677-131.924635-19.789719-34.407648-26.260084-72.644507-41.48995-116.245538-41.007973-36.821627 0.407276-69.50091 13.530155-99.210559 34.7085-4.833075 3.445472-9.648754 6.915503-14.905478 10.68434-16.046464-29.987988-40.255843-47.664579-74.236771-48.325635-33.827433-0.659009-58.743916 15.691377-75.869968 45.141106-2.437515-1.812275-4.743024-3.466961-6.987135-5.201465-34.267455-26.492374-72.63939-41.337477-116.364241-40.279379-37.087687 0.89744-69.65236 14.645558-99.009991 36.559661-14.82873 11.069103-30.147624 21.151739-47.910173 26.818809-42.738383 13.635555-81.736583 4.903683-117.541043-20.61655-18.077727-12.884448-29.708626-10.425444-39.23049 9.304923 0 3.069919 0 6.139837 0 9.209756 2.849908 7.867178 8.633634 13.116739 15.331173 17.733896 32.425504 22.350031 67.870784 35.226293 107.653859 34.402531 38.060851-0.788969 71.314209-14.890128 101.305267-37.461193 14.390755-10.829649 29.414937-20.455891 46.671972-25.922393 44.372603-14.057157 84.256986-4.113691 120.863718 23.032576 7.379061 5.472642 15.192004 10.361999 22.548552 15.863293 1.886977 1.411139 3.663436 3.996011 4.02057 6.272867 5.439896 34.622542 24.457018 58.144258 57.424874 69.89386 5.116531 1.823532 6.173606 3.969405 6.16849 8.887414-0.130983 125.149325-0.01535 250.29865-0.257873 375.447974-0.021489 10.863419 3.27765 18.446118 13.549597 22.478967 2.387373 0 4.77577 0 7.163143 0 10.758018-3.844561 14.237259-11.783371 13.978363-22.754237-0.436952-18.578124-0.119727-37.173644-0.119727-55.762001 0-1.836835 0-3.672646 0-6.202259 2.777253 0 4.944616 0 7.111978 0 32.401967 0 64.803935 0.002047 97.204879-0.00614 1.874697 0 3.759627 0.032746 5.622044-0.144286 4.590552-0.435928 7.003508-3.260254 7.604188-7.614421 0.582261-4.222161-2.188852-8.069793-6.532787-9.052167-1.962701-0.444115-4.054339-0.425695-6.088672-0.426719-32.742728-0.023536-65.485457-0.016373-98.228185-0.017396-2.001587 0-4.004197 0-6.346545 0 0-19.73753 0-38.917358 0-58.802244 2.042519 0 4.027733 0 6.011924 0 32.742728 0 65.485457 0 98.228185 0 1.194198 0 2.388397 0.028653 3.581572-0.007163 5.664-0.169869 9.514701-3.638877 9.514701-8.55177 0-5.0142-3.753487-8.587586-9.405207-8.624425-12.277628-0.080841-24.557302-0.027629-36.835953-0.027629-21.658276-0.001023-43.316551 0-64.973804 0-1.851161 0-3.701299 0-6.009877 0 0-19.532869 0-38.695301 0-58.829873 1.782599 0 3.729951 0 5.678326 0 32.913621 0 65.827241 0.004093 98.739838-0.00307 8.511861-0.002047 12.621459-2.733251 12.789281-8.445346 0.174985-5.930059-3.997034-8.821923-12.806677-8.823969-32.57286-0.008186-65.144696-0.00307-97.716532-0.00307-2.174526 0-4.349051 0-7.143701 0 0-2.329045 0-3.990894 0-5.652743 0-46.215578 0.063445-92.430132-0.106424-138.644687-0.01535-4.221138 1.307785-5.691629 5.284353-6.830569 34.400484-9.848299 54.793954-32.654724 61.981656-67.600631 0.448208-2.177596 2.050706-4.666276 3.868097-5.922896 9.660011-6.682189 19.724227-12.782118 29.343305-19.519566 23.475667-16.443507 49.078789-26.745131 78.048587-26.582425 32.383548 0.181125 60.787458 11.667737 86.206384 31.458479 33.180703 25.834388 70.680782 40.195467 113.00575 39.775912 40.09416-0.398066 74.975599-15.614629 105.931634-40.283472 3.702322-2.950192 5.441942-8.362458 8.091282-12.634762C1016.687454 138.373902 1016.687454 135.644745 1016.687454 132.916611zM200.268186 44.375042c31.798217-0.915859 59.731406-11.927657 84.761476-30.803563 14.290471-10.777461 29.358655-19.946284 47.001477-23.898293 33.966603-7.609305 64.00064 1.355881 91.073228 22.24156 26.853601 20.715811 57.010435 32.570813 91.131557 32.740682 31.69077 0.158612 59.643402-11.159154 84.813664-29.794583 14.83487-10.984169 30.664394-19.756973 48.966225-23.229051 33.335223-6.324032 62.686714 3.046383 89.047082 23.340591 23.802102 18.324344 50.296523 29.723975 80.431867 32.108279 31.751145 2.512217 60.21543-6.764054 86.418208-24.098861 3.692089-2.442632 7.351432-4.981455 10.756995-7.801686 7.537673-6.240121 8.625448-16.73208 2.735297-24.26566-5.722328-7.318686-15.940041-8.858762-23.74582-3.048429-13.826913 10.292414-28.614711 18.611893-45.588291 22.201651-33.017998 6.984065-62.492286-1.471514-88.809675-21.750373-29.540803-22.762423-62.416562-35.269271-100.051717-33.353642-28.285207 1.439792-53.2856 12.08013-75.865875 28.653597-14.426571 10.589173-29.574572 19.623943-47.238884 23.447015-34.32476 7.430226-64.699558-1.622964-92.037183-22.722514-27.022447-20.856004-57.3338-32.653701-91.714841-32.354895-30.575366 0.26606-57.607022 11.210319-81.82254 29.333072-14.876826 11.133571-30.411637 20.805862-48.814776 24.759917-32.819476 7.05058-62.08501-1.302669-88.455611-21.195741-11.685133-8.81476-26.359344-3.957125-28.78458 9.927093-1.305739 7.477298 1.942235 13.228279 7.806803 17.709337 18.150382 13.866822 38.338167 23.454178 60.697407 28.080545C181.952029 42.458389 191.164854 43.152191 200.268186 44.375042z"  horiz-adv-x="1024" />

    
    <glyph glyph-name="jihuo" unicode="&#59075;" d="M865.8 661.5c-19.3 45.7-47 86.8-82.3 122-35.3 35.3-76.3 62.9-122 82.3-47.4 20-97.7 30.2-149.5 30.2-51.8 0-102.1-10.2-149.5-30.2-45.7-19.3-86.8-47-122-82.3-35.3-35.3-62.9-76.3-82.3-122-20-47.4-30.2-97.7-30.2-149.5 0-72.1 20.1-142.4 58.1-203.2 33.4-53.5 79.5-98 133.9-129.4l0-115.4c0-51.1 20-99.3 56.4-135.6 36.4-36.4 84.5-56.4 135.6-56.4s99.3 20 135.6 56.4c36.4 36.4 56.4 84.5 56.4 135.6L704 179.4c54.4 31.5 100.4 75.9 133.9 129.4 38 60.9 58.1 131.1 58.1 203.2C896 563.9 885.8 614.1 865.8 661.5zM512-64c-70.6 0-128 57.4-128 128l0 64 256 0 0-64C640-6.5 582.6-64 512-64zM657.4 226.9c-10.7-5.5-17.4-16.5-17.4-28.5l0-6.4L384 192l0 6.4c0 12-6.7 23-17.4 28.5C258.9 281.9 192 391.2 192 512c0 176.4 143.6 320 320 320 176.4 0 320-143.6 320-320C832 391.2 765.1 281.9 657.4 226.9z"  horiz-adv-x="1024" />

    
    <glyph glyph-name="a531" unicode="&#58966;" d="M836.593 453.792c0.559 7.703 1.21 15.429 1.21 23.295 0 7.866-0.652 15.545-1.187 23.272h94.274v-46.567l-94.297 0zM725.145 723.115l66.58 66.58 32.929-32.906-66.627-66.627c-10.17 11.799-21.131 22.783-32.883 32.953v0zM651.63 236.132v-247.773c0-64.253-52.082-116.358-116.358-116.358h-46.543c-64.276 0-116.358 52.129-116.358 116.358l-0 247.587c-83.359 48.219-139.63 138.001-139.63 241.234 0 154.175 124.992 279.167 279.12 279.167 154.175 0 279.144-124.992 279.144-279.144 0-103.14-56.155-192.783-139.374-241.071v0zM512-81.433c51.407 0 93.11 41.656 93.11 93.063h-186.197c-0.023-51.407 41.68-93.063 93.087-93.063v0zM605.11 58.197v46.543h-186.197v-46.543h186.197zM511.953 700.355c-123.293 0-223.245-99.952-223.245-223.245 0-90.038 53.432-167.44 130.182-202.766v-123.107h186.197v123.154c76.727 35.303 130.065 112.728 130.065 202.72 0.023 123.293-99.905 223.245-223.199 223.245v0zM488.728 801.68v94.297h46.543v-94.297c-7.726 0.535-15.406 1.187-23.272 1.187-7.866 0-15.545-0.628-23.272-1.187v0zM199.345 756.812l32.929 32.906 66.627-66.627c-11.752-10.17-22.76-21.177-32.929-32.906l-66.627 66.627zM93.11 453.792v46.567h94.297c-0.559-7.726-1.21-15.406-1.21-23.272s0.652-15.592 1.187-23.295h-94.274z"  horiz-adv-x="1024" />

    
    <glyph glyph-name="shouji" unicode="&#58930;" d="M713.528899 827.405739l-403.462005 0.403183c-44.582381 0-80.288604-36.109406-80.288604-80.69281l0-726.232223c0-44.582381 35.706223-80.69281 80.288604-80.69281l403.462005 0c44.582381 0 80.69281 36.109406 80.69281 80.69281L794.22171 747.116111C794.22171 791.698492 758.112304 827.405739 713.528899 827.405739zM713.528899 101.576699 310.066895 101.576699 310.066895 666.424324l403.462005 0L713.528899 101.576699z"  horiz-adv-x="1024" />

    
    <glyph glyph-name="fankui1" unicode="&#59153;" d="M285.435 466.015c-22.621 0-41.215 18.535-41.215 41.215s18.535 41.215 41.215 41.215h267.778c22.621 0 41.215-18.535 41.215-41.215s-18.594-41.215-41.215-41.215h-267.778zM285.435 301.273c-22.621 0-41.215 18.535-41.215 41.215 0 22.621 18.535 41.156 41.215 41.156h494.345c22.681 0 41.215-18.535 41.215-41.156 0-22.681-18.535-41.215-41.215-41.215h-494.345zM38.263 414.556c0-99.366 38.55-186.831 102.979-254.692v-188.133c0-30.26 20.134-62.297 82.371-20.667 1.954 1.244 84.858 53.769 131.521 83.259 49.149-13.916 101.914-21.436 156.866-21.436 261.68 0 473.737 168.473 473.737 401.61 0 233.197-212.056 422.277-473.737 422.277-261.621 0-473.737-189.021-473.737-422.218z"  horiz-adv-x="1024" />

    
    <glyph glyph-name="fenxifankuifenxi" unicode="&#59127;" d="M793.608448 590.6859 256.831481 590.6859c-4.323599 0-7.84018-3.51759-7.84018-7.841189l0-357.407116c0-4.323599 3.51759-7.84018 7.841189-7.84018l80.606982 0c2.774125 0 5.083205-2.256624 5.145749-5.030749l1.747194-78.063866 74.665311 81.426105c0.972457 1.06022 2.354475 1.66851 3.793994 1.66851l370.817738 0c4.323599 0 7.84018 3.516581 7.84018 7.839172L801.449638 582.844711C801.448629 587.16831 797.932048 590.6859 793.608448 590.6859zM298.814578 415.844428c0 2.837677 2.30908 5.146758 5.146758 5.146758l314.200377 0c2.837677 0 5.147766-2.30908 5.147766-5.146758l0-18.301152c0-2.837677-2.30908-5.146758-5.147766-5.146758L303.961336 392.396519c-2.837677 0-5.146758 2.30908-5.146758 5.146758L298.814578 415.844428zM756.466451 297.474045c0-2.837677-2.30908-5.147766-5.147766-5.147766L303.961336 292.326279c-2.837677 0-5.146758 2.30908-5.146758 5.147766L298.814578 315.774189c0 2.837677 2.30908 5.147766 5.146758 5.147766l447.358358 0c2.837677 0 5.147766-2.30908 5.147766-5.147766L756.46746 297.474045zM756.466451 497.614525c0-2.837677-2.30908-5.147766-5.147766-5.147766L303.961336 492.466758c-2.837677 0-5.146758 2.30908-5.146758 5.147766L298.814578 515.914668c0 2.837677 2.30908 5.146758 5.146758 5.146758l447.358358 0c2.837677 0 5.147766-2.30908 5.147766-5.146758L756.46746 497.614525zM504.707079 879.523717c-278.561451 0-504.380236-225.818785-504.380236-504.380236s225.818785-504.380236 504.380236-504.380236 504.380236 225.818785 504.380236 504.380236S783.26853 879.523717 504.707079 879.523717zM830.043296 225.436587c0-20.089706-16.345142-36.434848-36.434848-36.434848l-360.505056 0-99.423617-108.425903c-1.903554-2.075045-4.442634-3.175616-7.088645-3.175616-1.161097 0-2.343379 0.211842-3.50145 0.647632-3.792985 1.427413-6.20496 4.831012-6.29575 8.882243l-2.28487 102.073662-57.67859 0c-20.091723 0-36.435857 16.345142-36.435857 36.435857L220.394615 582.844711c0 20.090715 16.345142 36.435857 36.435857 36.435857l536.776968 0c20.089706 0 36.434848-16.345142 36.434848-36.434848L830.042288 225.436587z"  horiz-adv-x="1025" />

    
    <glyph glyph-name="dianliubiao2" unicode="&#58980;" d="M512 624c-128.2 0-232.9-100-239.6-227L0 397l0-26 272.4 0c6.8-127 111.5-227 239.6-227s232.9 100.5 239.6 227L1024 371l0 26L751.6 397C744.9 523.5 640.2 624 512 624zM727 384c0-118.7-96.3-215-215-215s-215 96.3-215 215 96.3 215 215 215S727 502.7 727 384zM492.1 539.9l43.8 0L640 253l-42.5 0-29.9 85.9L455.1 338.9 424 253l-39.8 0L492.1 539.9zM556.5 370.6l-44.1 126.8-45.9-126.8L556.5 370.6z"  horiz-adv-x="1024" />

    
    <glyph glyph-name="tingzhi2" unicode="&#58927;" d="M511.999373 896C229.235802 896 0 666.765626 0 384 0 101.233235 229.234656-128 511.999373-128 794.766483-128 1024 101.231974 1024 384 1024 666.76688 794.765344 896 511.999373 896ZM576 640 704 640 704 128 576 128 576 640ZM320 640 448 640 448 128 320 128 320 640Z"  horiz-adv-x="1024" />

    
    <glyph glyph-name="tingzhi3" unicode="&#59211;" d="M909.893 552.142c-21.795 51.478-52.905 97.63-92.51 137.235-39.61 39.605-85.865 70.82-137.241 92.515-53.215 22.515-109.81 33.978-168.14 33.978-58.333 0-114.825-11.462-168.143-33.978-51.478-21.797-97.63-52.91-137.235-92.515-39.605-39.605-70.82-85.863-92.515-137.235C91.593 498.924 80.13 442.331 80.13 383.999c0-58.33 11.462-114.825 33.978-168.141 21.797-51.48 52.91-97.63 92.515-137.24 39.605-39.605 85.863-70.82 137.235-92.51 53.218-22.52 109.811-33.98 168.143-33.98 58.33 0 114.825 11.46 168.14 33.98 51.48 21.795 97.63 52.905 137.241 92.51 39.605 39.61 70.82 85.865 92.51 137.24 22.52 53.215 33.98 109.811 33.98 168.141C943.873 442.331 932.512 498.824 909.893 552.142zM512.001-2.842c-213.276 0-386.841 173.565-386.841 386.841s173.565 386.841 386.841 386.841c213.275 0 386.841-173.565 386.841-386.841S725.277-2.842 512.001-2.842zM432.741 233.898l228.3 141.42-228.3 132.308L432.741 233.898z"  horiz-adv-x="1024" />

    
    <glyph glyph-name="wendu1" unicode="&#58926;" d="M644.266667 699.733333l59.733333 0c4.266667 0 8.533333 4.266667 8.533333 8.533333 0 4.266667-4.266667 8.533333-8.533333 8.533333l-59.733333 0c-4.266667 0-8.533333-4.266667-8.533333-8.533333C635.733333 704 640 699.733333 644.266667 699.733333zM704 392.533333c4.266667 0 8.533333 4.266667 8.533333 8.533333 0 4.266667-4.266667 8.533333-8.533333 8.533333l-59.733333 0c-4.266667 0-8.533333-4.266667-8.533333-8.533333 0-4.266667 4.266667-8.533333 8.533333-8.533333L704 392.533333zM601.6 358.4 601.6 708.266667l0 0c0 4.266667 0 4.266667 0 8.533333 0 55.466667-46.933333 102.4-102.4 102.4-55.466667 0-102.4-46.933333-102.4-102.4 0-4.266667 0-4.266667 0-8.533333l0 0 0-349.866667c-81.066667-38.4-136.533333-119.466667-136.533333-213.333333 0-132.266667 106.666667-238.933333 243.2-238.933333s243.2 106.666667 243.2 238.933333C738.133333 238.933333 682.666667 320 601.6 358.4zM499.2-42.666667c-106.666667 0-192 85.333333-192 187.733333 0 81.066667 51.2 149.333333 123.733333 174.933333l0 0 0 0L430.933333 729.6l0 0c4.266667 29.866667 34.133333 55.466667 68.266667 55.466667 34.133333 0 59.733333-21.333333 68.266667-55.466667l0 0 0-405.333333 0 0 0 0c72.533333-25.6 123.733333-93.866667 123.733333-174.933333C691.2 42.666667 601.6-42.666667 499.2-42.666667zM644.266667 742.4l115.2 0c4.266667 0 8.533333 4.266667 8.533333 8.533333 0 4.266667-4.266667 8.533333-8.533333 8.533333l-115.2 0c-4.266667 0-8.533333-4.266667-8.533333-8.533333C635.733333 746.666667 640 742.4 644.266667 742.4zM759.466667 452.266667l-115.2 0c-4.266667 0-8.533333-4.266667-8.533333-8.533333 0-4.266667 4.266667-8.533333 8.533333-8.533333l115.2 0c4.266667 0 8.533333 4.266667 8.533333 8.533333C768 448 763.733333 452.266667 759.466667 452.266667zM644.266667 494.933333l59.733333 0c4.266667 0 8.533333 4.266667 8.533333 8.533333 0 4.266667-4.266667 8.533333-8.533333 8.533333l-59.733333 0c-4.266667 0-8.533333-4.266667-8.533333-8.533333C635.733333 499.2 640 494.933333 644.266667 494.933333zM759.466667 657.066667l-115.2 0c-4.266667 0-8.533333-4.266667-8.533333-8.533333C635.733333 644.266667 640 640 644.266667 640l115.2 0C763.733333 640 768 644.266667 768 648.533333 768 652.8 763.733333 657.066667 759.466667 657.066667zM644.266667 597.333333l59.733333 0c4.266667 0 8.533333 4.266667 8.533333 8.533333 0 4.266667-4.266667 8.533333-8.533333 8.533333l-59.733333 0c-4.266667 0-8.533333-4.266667-8.533333-8.533333C635.733333 601.6 640 597.333333 644.266667 597.333333zM759.466667 554.666667l-115.2 0c-4.266667 0-8.533333-4.266667-8.533333-8.533333 0-4.266667 4.266667-8.533333 8.533333-8.533333l115.2 0c4.266667 0 8.533333 4.266667 8.533333 8.533333C768 550.4 763.733333 554.666667 759.466667 554.666667z"  horiz-adv-x="1024" />

    
    <glyph glyph-name="qiehuan" unicode="&#58887;" d="M158.3 384c0 195.3 158.4 353.7 353.7 353.7v-106.1c0-19.5 15.9-35.4 35.4-35.4s49.1 35.4 49.1 35.4L795 832H512C264.6 832 64 631.4 64 384c0-117.7 45.7-224.5 120-304.4l66.7 66.7c-57.2 62.8-92.4 146-92.4 237.7zM840 688.4l-66.7-66.7c57.2-62.8 92.4-146.1 92.4-237.8 0-195.3-158.4-353.7-353.7-353.7V136.4c0 19.5-15.8 35.4-35.4 35.4-19.5 0-49.1-35.4-49.1-35.4L229-64h283c247.4 0 448 200.6 448 448 0 117.7-45.7 224.5-120 304.4z"  horiz-adv-x="1024" />

    
    <glyph glyph-name="shijianfenzhong" unicode="&#59408;" d="M682.794409 630.172679h-95.920629c-22.334681-24.799826-54.388724-40.696888-90.3958-40.696888s-68.060095 15.897062-90.416266 40.696888h-95.89914c31.43699-71.776743 102.913904-122.090663 186.315406-122.090663 83.402525 0 154.877393 50.313919 186.316429 122.090663zM883.098411 833.65814H109.856525c-11.248182 0-20.348444-9.063423-20.348443-20.348444v-40.696887c0-11.206226 9.101285-20.348444 20.348443-20.348444h61.045332v-61.045332c0-147.645688 104.864326-270.829242 244.182348-299.114448v83.711564c-93.949742 26.576285-162.788573 112.961748-162.788573 215.403908v61.045331h488.363673v-61.045331c0-102.44216-68.837808-188.827623-162.78755-215.403908v-83.711564c139.318022 28.28623 244.182348 151.46876 244.182348 299.114448v61.045332h61.044308c11.228739 0 20.348444 9.142218 20.348444 20.348444v40.696887c0 11.285021-9.119705 20.348444-20.348444 20.348444z m0-813.938774h-61.044308v61.045332c0 147.680481-104.865349 270.837428-244.182348 299.116495v-83.710541c93.950765-26.568099 162.78755-112.931049 162.78755-215.405954v-61.045332H706.913736c-41.450041 71.788-117.873618 120.602775-206.370161 122.05587l36.631292 366.30678h-81.394798l36.630269-366.30678c-88.51087-1.453095-164.925237-50.26787-206.370161-122.05587h-33.745569v61.045332c0 102.474906 68.838831 188.838879 162.788574 215.405954v83.710541c-139.318022-28.278043-244.182348-151.434991-244.182349-299.116495v-61.045332H109.855502c-11.248182 0-20.348444-9.0624-20.348444-20.348443v-40.697911c0-11.206226 9.101285-20.348444 20.348444-20.348444h773.241886c11.228739 0 20.348444 9.142218 20.348444 20.348444v40.697911c0.001023 11.285021-9.118682 20.348444-20.347421 20.348443z m-493.538533 0c28.488845 25.276686 65.788355 40.697911 106.917079 40.697911 41.128723 0 78.43028-15.420201 106.916055-40.697911H389.559878z"  horiz-adv-x="1024" />

    
    <glyph glyph-name="eryanghuatan" unicode="&#59171;" d="M772.433455 547.060364c88.145455 5.515636 100.258909 12.567273 152.215272-37.061819 82.746182 39.109818 33.093818 179.397818-60.090182 149.783273 4.549818 65.594182-119.936 181.096727-211.118545 32.512 2.955636-1.082182 117.969455-40.925091 118.993455-145.233454zM631.912727 381.707636c-22.516364 0-40.529455-8.005818-54.062545-23.575272-13.009455-15.511273-20.072727-37.015273-20.072727-64.197819h0.512c0-26.426182 6.493091-46.952727 20.014545-62.068363 13.533091-14.999273 31.104-22.958545 53.608727-22.958546 23.028364 0 41.157818 7.458909 53.143273 21.888 12.043636 15.115636 18.024727 36.200727 18.024727 64.232728s-5.981091 49.117091-18.024727 64.139636c-11.985455 15.034182-30.126545 22.539636-53.143273 22.539636zM818.024727 490.961455l-99.712 3.514181c-36.561455 271.034182-413.288727 317.579636-493.44-45.067636l-39.051636-2.048c-205.370182-99.630545-124.706909-321.675636-32-354.199273v-0.570182h668.706909c158.743273 41.634909 193.291636 313.204364-4.503273 398.37091zM453.131636 364.206545a88.203636 88.203636 0 0 1-54.097454 18.013091c-23.086545 0-42.123636-8.005818-56.622546-24.029091-14.557091-16.023273-22.062545-37.527273-22.062545-64.186181 0-26.426182 7.04-46.952727 20.526545-62.068364 14.045091-14.999273 32.058182-22.528 55.645091-22.528 19.560727 0 38.551273 6.551273 56.040728 19.549091v-38.050909c-17.501091-10.589091-38.539636-15.522909-63.604364-15.522909-33.093818 0-59.624727 10.542545-79.639273 32.046545-20.014545 20.980364-30.010182 48.523636-30.010182 82.594909 0 37.632 11.019636 67.688727 32.570182 90.717091 21.492364 23.028364 51.048727 34.548364 87.144727 34.548364 21.026909 0 39.04-3.584 54.097455-11.008v-40.075637zM713.076364 208.384c-21.038545-21.981091-48.546909-33.524364-83.665455-33.524364-34.059636 0-61.626182 10.565818-82.141091 32.046546-20.526545 21.434182-30.522182 50.024727-30.522182 85.154909v0.384c0 38.155636 10.507636 67.700364 31.476364 89.762909 21.096727 22.062545 49.629091 32.558545 86.237091 32.558545 34.56 0 61.044364-10.554182 80.605091-31.592727 19.560727-21.073455 29.614545-50.141091 29.614545-87.133091 0-36.037818-10.577455-65.536-31.604363-87.656727z"  horiz-adv-x="1024" />

    
    <glyph glyph-name="tingzhi4" unicode="&#58898;" d="M511.163399 793.098039c-226.384314 0-409.934641-183.550327-409.934641-409.93464s183.550327-409.934641 409.934641-409.934641 409.934641 183.550327 409.93464 409.934641-183.550327 409.934641-409.93464 409.93464z m146.572549-527.226144c0-16.230065-13.05098-29.281046-29.281046-29.281045h-234.248366c-16.230065 0-29.281046 13.05098-29.281046 29.281045v234.248366c0 16.230065 13.05098 29.281046 29.281046 29.281046h234.248366c16.230065 0 29.281046-13.05098 29.281046-29.281046v-234.248366z"  horiz-adv-x="1024" />

    
    <glyph glyph-name="lianxigray" unicode="&#58907;" d="M729.075-94.471c-60.971 0-139.691 40.708-194.989 74.867-74.052 45.738-153.834 109.021-224.649 178.169l-0.259 0.254-22.481 22.539c-68.996 70.972-132.127 150.939-177.769 225.164-34.077 55.421-74.7 134.315-74.7 195.427 0 65.399 46.662 134.807 66.718 161.61 15.653 20.925 70.34 89.181 116.807 89.181 19.075 0 39.623-12.516 66.629-40.59 23.887-24.817 46.809-55.674 61.826-77.183 20.174-28.878 38.827-59.115 52.541-85.145 22.191-42.146 24.757-60.228 24.757-70.154 0-20.032-10.444-37.413-31.030-51.651-13.554-9.369-29.834-16.423-45.568-23.248-10.618-4.605-27.566-11.949-34.032-17.115 2.26-9.571 12.118-32.7 38.757-71.902 24.828-36.535 56.934-76.119 85.934-105.969 29.786-29.067 69.273-61.253 105.738-86.13 39.097-26.694 62.171-36.58 71.735-38.844 5.146 6.478 12.477 23.465 17.069 34.098 6.804 15.775 13.85 32.093 23.2 45.679 14.21 20.639 31.546 31.095 51.54 31.095 9.903 0 27.94-2.569 69.988-24.81 25.974-13.741 56.146-32.441 84.958-52.658 21.46-15.052 52.246-38.025 77.013-61.957 27.999-27.076 40.49-47.667 40.49-66.789 0-46.57-68.095-101.386-88.971-117.067-26.756-20.114-96.012-66.871-161.255-66.871v0 0 0zM348.509 198.495c67.938-66.324 144.224-126.864 214.859-170.482 68.475-42.299 128.873-66.56 165.709-66.56 32.814 0 79.58 20.084 125.129 53.719 19.962 14.753 38.137 31.177 51.168 46.243 12.223 14.146 16.694 23.38 17.836 27.105-4.733 10.176-32.798 41.985-98.295 87.274-25.7 17.767-52.267 34.091-74.807 45.972-28.306 14.912-40.102 17.489-42.796 17.917-1.053-0.727-4.131-3.309-8.823-11.184-5.246-8.814-10.285-20.499-15.164-31.796-5.998-13.914-12.211-28.291-19.821-39.903-12.383-18.871-27.586-28.45-45.188-28.458-0.32 0-0.653 0-0.992 0.013-8.565 0.185-34.644 0.738-105.441 49.063-39.082 26.688-81.531 61.285-113.522 92.565l-0.5 0.493c-31.204 32.083-65.722 74.614-92.349 113.785-48.222 70.96-48.782 97.095-48.96 105.691-0.38 17.962 9.077 33.456 28.1 46.092 11.636 7.717 26.105 13.988 40.102 20.058 11.27 4.886 22.919 9.938 31.716 15.19 7.853 4.693 10.444 7.781 11.152 8.843-0.421 2.703-2.993 14.524-17.87 42.897-11.849 22.587-28.146 49.216-45.861 74.969-45.194 65.659-76.933 93.785-87.076 98.525-3.718-1.146-12.929-5.626-27.047-17.882-15.042-13.047-31.425-31.269-46.134-51.28-33.565-45.642-53.593-92.522-53.593-125.408 0-36.914 24.195-97.446 66.397-166.082 43.527-70.799 103.925-147.261 170.095-215.349l21.98-22.028zM680.602 399.187c-9.738 0-18.362 6.988-20.114 16.941-5.006 28.441-21.436 53.159-46.275 69.587-25.187 16.666-55.979 22.854-86.704 17.422-11.124-1.969-21.728 5.481-23.685 16.631-1.962 11.143 5.463 21.774 16.587 23.738 41.062 7.263 82.379-1.113 116.33-23.579 34.311-22.695 57.052-57.030 64.029-96.682 1.961-11.151-5.466-21.78-16.588-23.746-1.2-0.213-2.398-0.311-3.578-0.311v0 0zM803.717 452.116c-9.738 0-18.368 6.99-20.114 16.937-9.71 55.203-41.537 103.121-89.611 134.922-48.428 32.041-107.552 43.95-166.483 33.533-11.124-1.965-21.721 5.484-23.685 16.627-1.962 11.146 5.463 21.783 16.587 23.747 69.268 12.236 138.917-1.852 196.108-39.697 57.553-38.067 95.682-95.609 107.359-162.014 1.967-11.151-5.466-21.783-16.589-23.747-1.199-0.206-2.391-0.307-3.571-0.307v0 0zM968.089 467.395c-9.739 0-18.375 6.998-20.123 16.944-16.57 94.196-70.828 175.948-152.787 230.155-82.305 54.451-182.733 74.7-282.774 57.018-11.118-1.963-21.723 5.479-23.68 16.63-1.958 11.143 5.466 21.777 16.59 23.74 110.377 19.513 221.322-2.923 312.397-63.169 91.431-60.487 151.995-151.85 170.537-257.259 1.966-11.143-5.466-21.775-16.589-23.738-1.2-0.22-2.393-0.322-3.571-0.322v0 0zM968.089 467.395z"  horiz-adv-x="1024" />

    
    <glyph glyph-name="shezhi" unicode="&#58897;" d="M948.907 285.013C892.587 378.88 926.72 496.64 1024 551.253L919.893 727.04c-29.013-17.067-64.853-27.307-100.693-27.307-110.933 0-201.387 87.04-201.387 196.267h-209.92c0-34.133-8.533-66.56-27.306-98.987-56.32-92.16-179.2-124.586-276.48-69.973L0 552.96c30.72-17.067 56.32-40.96 75.093-71.68C129.707 389.12 97.28 269.653 0 215.04l104.107-174.08c29.013 17.067 64.853 25.6 100.693 25.6 110.933 0 201.387-87.04 201.387-194.56H614.4c0 32.427 8.533 66.56 27.307 97.28 56.32 92.16 179.2 124.587 276.48 71.68L1024 215.04c-30.72 15.36-56.32 39.253-75.093 69.973zM512 177.493c-119.467 0-215.04 92.16-215.04 206.507 0 114.347 95.573 208.213 215.04 208.213S727.04 500.053 727.04 384c0-114.347-95.573-206.507-215.04-206.507z"  horiz-adv-x="1024" />

    
    <glyph glyph-name="set" unicode="&#59036;" d="M665.476-99.473h-0.005c-18.624 0.008-36.731 7.705-48.423 20.609-15.932 17.467-66.412 62.889-107.731 62.889-41.035 0-92.298-45.684-107.021-61.686-11.664-12.686-29.646-20.256-48.089-20.256-8.789 0-17.078 1.682-24.651 5.010l-1.326 0.576-125.595 70.238-1.251 0.871c-22.86 16.008-31.562 47.314-20.232 72.822 0.087 0.193 11.585 26.727 11.585 50.916 0 73.414-59.728 133.141-133.139 133.141h-4.452c-0.275-0.010-0.548-0.016-0.805-0.016-21.033 0-38.152 18.68-43.629 47.596-0.434 2.318-10.712 57.15-10.712 100.351 0 43.207 10.274 98.044 10.711 100.361 5.539 29.278 23.032 48.084 44.436 47.58h4.452c73.411 0 133.137 59.727 133.137 133.134 0 24.184-11.491 50.711-11.613 50.975-11.319 25.483-2.558 56.788 20.408 72.742l1.3 0.901 132.547 72.809 1.38 0.585c7.467 3.183 15.638 4.795 24.298 4.795 18.41 0 36.42-7.408 48.198-19.815 15.687-16.424 65.274-59.146 105.409-59.146 39.762 0 89.048 41.875 104.684 58.014 11.71 12.154 29.595 19.435 47.816 19.435 8.836 0 17.161-1.671 24.751-4.968l1.34-0.585 128.021-71.123 1.265-0.887c22.908-15.982 31.631-47.291 20.292-72.815-0.082-0.194-11.585-26.728-11.585-50.918 0-73.406 59.728-133.134 133.135-133.134h4.459c21.37 0.478 38.887-18.298 44.429-47.58 0.436-2.315 10.711-57.148 10.711-100.352 0-43.209-10.275-98.043-10.719-100.359-5.536-29.279-23.055-48.016-44.431-47.576h-4.449c-73.407 0-133.135-59.729-133.135-133.141 0-24.18 11.491-50.705 11.608-50.967 11.309-25.471 2.566-56.779-20.353-72.748l-1.283-0.898-130.186-71.955-1.355-0.586c-7.449-3.208-15.586-4.839-24.202-4.839zM661.524-38.139c0.579-0.381 2.227-1.025 3.951-1.025 0.073 0 0.138 0 0.197 0.004l121.629 67.223c-2.936 6.818-16.358 39.924-16.358 74.447 0 103.264 81.328 187.889 183.301 193.182 1.465 8.104 9.431 53.695 9.431 87.894s-7.966 79.766-9.431 87.895c-101.972 5.296-183.301 89.921-183.301 193.178 0 34.579 13.465 67.723 16.373 74.492l-119.655 66.477c-0.137 0.006-0.307 0.019-0.501 0.019-2.039 0-3.942-0.745-4.574-1.172-2.012-2.063-19.352-19.652-44.269-37.176-36.881-25.945-71.753-39.103-103.657-39.103-32.206 0-67.36 13.417-104.477 39.871-25.070 17.864-42.495 35.793-44.509 37.895-0.635 0.431-2.568 1.197-4.622 1.197-0.16 0-0.301-0.006-0.426-0.013l-123.94-68.073c2.976-6.904 16.347-39.951 16.347-74.417 0-103.257-81.327-187.882-183.301-193.178-1.463-8.11-9.43-53.692-9.43-87.895 0-34.195 7.965-79.763 9.439-87.886 101.961-5.299 183.292-89.92 183.292-193.182 0-34.648-13.518-67.848-16.397-74.531l117.306-65.592c0.074-0.012 0.164-0.012 0.263-0.012 1.712 0 3.336 0.629 3.918 1.004 2.193 2.352 19.71 20.898 44.95 39.398 37.612 27.568 73.358 41.545 106.243 41.545 33.194 0 69.213-14.242 107.044-42.342 25.384-18.84 42.979-37.731 45.164-40.124zM509.744 206.955c-97.763 0-177.299 79.541-177.299 177.305 0 97.763 79.538 177.301 177.299 177.301 97.766 0 177.308-79.538 177.308-177.301 0-97.764-79.542-177.305-177.308-177.305zM509.744 501.253c-64.508 0-116.988-52.482-116.988-116.99 0-64.517 52.481-116.996 116.988-116.996 64.515 0 117.004 52.479 117.004 116.996 0 64.508-52.486 116.99-117.004 116.99z"  horiz-adv-x="1024" />

    
    <glyph glyph-name="lianxiren" unicode="&#58936;" d="M97.767 421.639h149.902v-37.472h-149.902zM97.767 609.085h149.902v-37.494h-149.902zM172.682-65.622h712.202c37.467 0 37.467 37.471 37.467 37.471v824.679c0 37.471-37.468 37.471-37.468 37.471h-712.2s-37.473 0-37.473-37.471v-112.482h37.472v112.482h712.202v-824.679h-712.202v149.922h-37.472v-149.922s0-37.471 37.472-37.471zM319.521 172.896c-1.54-2.787-2.446-6.111-2.446-9.645 0-7.609 4.199-14.238 10.407-17.693 3.15-1.7 6.448-2.528 9.725-2.528 7.123 0 14.084 3.803 17.68 10.539 35.271 65.003 102.128 105.952 175.442 107.974 1.881-0.050 3.806-0.095 5.729-0.095 1.877 0 3.779 0.045 5.66 0.094 73.31-2.019 140.149-43.015 175.419-107.973 5.315-9.805 17.59-13.423 27.302-8.064 6.315 3.502 10.519 10.129 10.519 17.737 0 3.539-0.909 6.866-2.508 9.758-32.674 59.443-87.574 103.381-153.252 120.947 53.21 7.495 75.264 29.729 90.676 56.296 5.736-2.68 24.24 42.211 24.24 89.921 0 47.777-18.504 92.623-52.174 126.404-33.623 33.758-78.331 52.358-125.882 52.358-47.619 0-92.328-18.598-125.95-52.358-33.646-33.737-52.178-78.629-52.178-126.405 0-47.754 18.532-92.602 52.178-126.356 21.24-21.455 47.939-37.465 77.843-45.779-105.040-8.124-154.869-57.649-180.138-119.781M398.195 440.21c0 76.27 61.817 138.316 137.813 138.316 75.946 0 137.791-62.046 137.791-138.316 0-74.457-58.865-135.333-132.364-138.222-1.832 0.090-3.619 0.090-5.427 0.090-1.836 0-3.622 0-5.458-0.090-73.445 2.889-132.354 63.765-132.354 138.222M97.767 234.24h149.902v-37.467h-149.902z"  horiz-adv-x="1024" />

    
    <glyph glyph-name="fankui2" unicode="&#58901;" d="M1298.962963 11.851852c0.18963-56.13037-45.605926-101.925926-101.546667-101.925926H586.42963c-56.13037 0-101.736296 45.605926-101.736297 101.736296V690.441481c0 56.13037 45.605926 101.736296 101.736297 101.736297h475.022222c18.678519 0 33.943704-15.075556 33.943704-33.943704 0-18.678519-15.075556-33.943704-33.943704-33.943704h-475.022222c-18.488889 0-33.943704-15.265185-33.943704-33.943703v-678.494815c0-18.678519 15.265185-33.943704 33.943704-33.943704h610.702222c18.678519 0 33.943704 15.075556 33.943704 33.943704V554.856296c0 18.678519 15.075556 33.943704 33.943703 33.943704 18.678519 0 33.943704-15.075556 33.943704-33.943704v-543.004444zM857.694815 453.12H654.222222c-18.678519 0-33.943704 15.075556-33.943703 33.943704 0 18.678519 15.075556 33.943704 33.943703 33.943703h203.567408c18.678519 0 33.943704-15.075556 33.943703-33.943703s-15.075556-33.943704-34.038518-33.943704zM1061.451852 317.345185c18.678519 0 33.943704-15.075556 33.943704-33.943704 0-18.678519-15.075556-33.943704-33.754075-33.943703H654.222222c-18.678519 0-33.943704 15.075556-33.943703 33.943703 0 18.678519 15.075556 33.943704 33.943703 33.943704h407.22963zM1359.075556 800.142222l-337.256297-337.256296c-6.542222-6.542222-15.265185-9.765926-23.798518-9.765926-8.722963 0-17.256296 3.223704-24.177778 9.955556-13.274074 13.274074-13.274074 34.702222 0 47.976296l337.256296 337.066667c13.274074 13.274074 34.702222 13.274074 47.976297 0s13.274074-34.702222 0-47.976297z"  horiz-adv-x="1820" />

    
    <glyph glyph-name="xiaoshi1" unicode="&#58888;" d="M773.12 543.232l20.992 20.992 4.608-4.608c3.584-3.584 7.68-5.12 12.288-5.12 4.608 0 9.216 1.536 12.288 5.12 6.656 6.656 6.656 17.92 0 25.088l-34.304 34.304c-6.656 6.656-17.92 6.656-25.088 0-6.656-6.656-6.656-17.92 0-24.576l4.608-4.608-20.992-20.992c-58.368 53.248-134.656 86.528-219.136 90.624V730.112c0 9.728-7.68 17.408-17.408 17.408s-17.408-7.68-17.408-17.408v-71.168C307.2 649.728 158.72 495.104 158.72 306.688c0-194.56 158.208-352.768 352.768-352.768 194.56 0 352.768 158.208 352.768 352.768 0.512 90.624-34.304 173.568-91.136 236.544z m-261.12-553.984c-175.104 0-317.44 142.336-317.44 317.44s142.336 317.44 317.44 317.44 317.44-142.336 317.44-317.44-142.336-317.44-317.44-317.44zM422.4 740.352c9.728 0 17.408 7.68 17.408 17.408v20.992H583.68V757.76c0-9.728 7.68-17.408 17.408-17.408s17.408 7.68 17.408 17.408v38.912c0 9.728-7.68 17.408-17.408 17.408h-179.2c-9.728 0-17.408-7.68-17.408-17.408V757.76c0.512-9.728 8.192-17.408 17.92-17.408z m221.184-304.128l-143.872-143.872c-6.656-6.656-6.656-17.92 0-24.576 3.584-3.584 7.68-5.12 12.288-5.12 4.608 0 9.216 1.536 12.288 5.12l143.872 143.872c6.656 6.656 6.656 17.92 0 24.576-6.656 7.168-17.92 7.168-24.576 0z"  horiz-adv-x="1024" />

    
    <glyph glyph-name="shezhi1" unicode="&#58948;" d="M403.535 385.105c0 36.704 12.394 67.21 37.657 92.474 25.265 25.264 55.772 37.659 92.476 37.659 36.703 0 67.211-12.395 92.475-37.659 25.265-25.264 37.658-55.77 37.658-92.474 0-36.705-12.394-67.69-37.658-92.953-25.264-25.263-55.772-37.656-92.475-37.656-36.704 0-67.331 12.274-92.476 37.656-25.382 25.622-37.657 56.725-37.657 92.953zM219.548 300.256c7.626-27.17 19.068-53.865 32.89-78.651l-85.801-105.347 97.24-97.241 105.336 85.802c24.788-13.824 51.96-25.264 79.129-33.368l14.3-134.422h140.143l14.3 134.422c27.17 8.104 52.912 19.544 79.127 33.368l104.87-85.802 98.196 97.24L813 221.606c13.346 24.786 25.263 51.48 33.365 78.651l134.424 14.778V455.176l-134.424 14.3c-8.102 27.171-20.019 52.435-33.365 78.652l86.278 105.346-98.196 98.195-104.87-86.278c-26.692 13.348-51.956 25.264-79.127 33.367l-14.3 134.424H462.644l-14.3-134.424c-28.124-8.103-54.34-20.02-79.129-33.367L263.88 751.67l-97.241-98.195 85.802-105.346c-13.348-26.218-24.788-51.48-32.891-78.652l-134.901-14.3v-140.142l134.9-14.778z"  horiz-adv-x="1064" />

    
    <glyph glyph-name="renyuan" unicode="&#58947;" d="M1102.769231 19.456a369.742769 369.742769 0 0 1-232.526769 343.512615 246.311385 246.311385 0 0 1 109.48923 204.957539 246.232615 246.232615 0 0 1-189.755077 239.852308 4.726154 4.726154 0 0 1-2.835692-0.236308c-1.260308 0.078769-2.441846 0.393846-3.702154 0.393846a42.141538 42.141538 0 0 1-6.537846-83.731692c3.544615-1.417846 8.192-2.520615 8.428308-2.599385a159.901538 159.901538 0 0 0-22.449231-308.775385l-0.315077-0.236307a47.261538 47.261538 0 0 1 1.102769-94.444308c0.157538-0.078769 0.315077-0.393846 0.551385-0.393846 149.504-15.202462 255.448615-142.887385 255.448615-298.299077a41.511385 41.511385 0 0 1 82.944-1.575385l0.157539 0.551385v0.236308 0.787692zM604.868923 356.036923a294.675692 294.675692 0 0 1 130.678154 245.129846A294.518154 294.518154 0 0 1 441.422769 896 294.518154 294.518154 0 0 1 147.298462 601.166769c0-102.242462 51.908923-192.196923 130.678153-245.129846A442.525538 442.525538 0 0 1 0-54.980923c0-10.476308 0.630154-20.795077 1.417846-31.113846a40.96 40.96 0 0 1 82.077539 0c0 1.260308-0.315077 2.441846-0.393847 3.702154a313.501538 313.501538 0 0 0-1.575384 27.411692c0 199.286154 161.161846 360.763077 359.896615 360.763077a360.211692 360.211692 0 0 0 359.817846-360.763077c0-9.609846-0.787692-19.062154-1.575384-28.435692 0.708923-24.733538 18.668308-42.535385 40.881231-42.535385a40.96 40.96 0 0 1 40.88123 39.857231c0.787692 10.24 1.339077 20.637538 1.339077 31.113846A442.525538 442.525538 0 0 1 604.947692 356.036923z m-163.446154 33.319385a211.574154 211.574154 0 0 0-211.259077 211.810461c0 116.972308 94.523077 211.731692 211.259077 211.731693a211.495385 211.495385 0 0 0 211.259077-211.731693c0-116.972308-94.601846-211.889231-211.259077-211.889231z"  horiz-adv-x="1103" />

    
    <glyph glyph-name="shezhi2" unicode="&#58971;" d="M955.804774 294.588207a175.441013 175.441013 0 0 1-137.124696-237.406779 437.199005 437.199005 0 0 0-155.160032-89.755622 175.441013 175.441013 0 0 1-274.249392 0 437.549887 437.549887 0 0 0-155.160032 89.685446A175.441013 175.441013 0 0 1 96.91575 294.588207a443.023646 443.023646 0 0 0 0 179.230539 175.441013 175.441013 0 0 1 137.124696 237.406779 437.199005 437.199005 0 0 0 155.230208 89.685446A174.388367 174.388367 0 0 1 526.39535 735.085503a174.318191 174.318191 0 0 1 137.124696 65.895644 436.848123 436.848123 0 0 0 155.160032-89.755622 175.441013 175.441013 0 0 1 137.124696-237.406779 440.707825 440.707825 0 0 0 0-179.230539m77.194045 233.406724a43.579548 43.579548 0 0 1-44.983075 31.789911 87.790683 87.790683 0 0 0-78.87828 136.212403 43.860253 43.860253 0 0 1-5.052701 54.737596A525.480923 525.480923 0 0 1 655.028701 894.666648a43.790077 43.790077 0 0 1-49.965601-23.088037 87.299448 87.299448 0 0 0-78.66775-49.123484 87.299448 87.299448 0 0 0-78.66775 49.123484A43.860253 43.860253 0 0 1 397.761999 894.666648a525.34057 525.34057 0 0 1-249.056062-143.86163 43.860253 43.860253 0 0 1-5.122878-54.807773A87.790683 87.790683 0 0 0 64.915309 559.784842a43.228666 43.228666 0 0 1-44.983076-31.789911 529.130096 529.130096 0 0 1 0-287.723262A43.7199 43.7199 0 0 1 64.915309 208.271229a87.790683 87.790683 0 0 0 78.66775-136.212403 43.860253 43.860253 0 0 1 5.122878-54.807773 524.779158 524.779158 0 0 1 249.056062-143.86163 43.790077 43.790077 0 0 1 50.035777 23.017861 87.790683 87.790683 0 0 0 157.265324 0 43.860253 43.860253 0 0 1 49.965601-23.088038 524.989688 524.989688 0 0 1 249.056062 143.931807 43.860253 43.860253 0 0 1 5.052701 54.807773A87.790683 87.790683 0 0 0 987.805214 208.271229a44.000606 44.000606 0 0 1 44.983076 31.789911 529.340625 529.340625 0 0 1 0 287.723262M526.39535 252.622717a131.58076 131.58076 0 1 0 131.58076 131.580759A131.791289 131.791289 0 0 0 526.39535 252.622717m0 350.882026a219.301266 219.301266 0 1 1 219.301266-219.301267A219.511796 219.511796 0 0 1 526.39535 603.504743"  horiz-adv-x="1053" />

    
    <glyph glyph-name="jihuo1" unicode="&#58899;" d="M567.61417-8.193729c-11.093771 0-20.490744 7.584218-22.852464 18.444606l-33.987334 156.309445a10.597649 10.597649 0 0 0-0.297967 2.627395 11.143677 11.143677 0 0 0-0.280354 2.482081c0 29.055465-21.628304 43.999323-22.550093 44.620211a23.711138 23.711138 0 0 0-5.336988 4.943612c-52.4657 42.09116-82.532491 104.26501-82.532491 170.764521 0 120.819066 97.697991 219.111523 217.784615 219.111523 120.085156 0 217.784615-98.292457 217.78755-219.111523 0-66.932518-30.344209-129.361768-83.289885-171.457331a20.912008 20.912008 0 0 0-4.43428-4.153926l-0.076326-0.051374c-0.95555-0.681068-22.49872-16.388192-22.49872-44.667181 0-0.858674-0.096876-1.701201-0.290628-2.529051a11.058544 11.058544 0 0 0-0.2965-2.642073l-34.040175-156.253669c-2.480613-10.891212-11.873183-18.440202-22.8554-18.440202h-99.95256z m98.163289 125.165276l6.848841 31.252788h-109.97042l6.775449-31.252788h96.34613z m15.199259 78.180409c7.057271 29.570669 25.962771 48.382229 35.029486 55.970851a21.411067 21.411067 0 0 0 4.203832 3.988062c43.467973 33.238747 68.395933 83.124022 68.394464 136.888741 0 94.920878-76.728737 172.145738-171.043406 172.145738-94.277974 0-170.980291-77.223392-170.980291-172.145738 0-53.890951 24.979333-103.81439 68.530972-136.973874a23.192998 23.192998 0 0 0 4.098149-3.883848c9.040293-7.569539 28.026524-26.431005 35.063245-55.985528h39.946677V367.277145c0 4.250802-1.617536 8.197766-4.553173 11.112853-2.938572 2.954718-6.750497 4.559044-10.772319 4.559044-13.026888 0-23.524725 10.506644-23.524725 23.421978 0 12.982853 10.469948 23.545274 23.338312 23.545274h0.186413c14.424251 0 28.094044-4.946548 39.108553-14.047022 11.046801 9.115152 24.424498 14.04849 38.470052 14.04849 12.903591 0 23.401428-10.536 23.401428-23.485094s-10.497837-23.483626-23.401428-23.483626c-8.552978 0-15.511905-7.03085-15.511905-15.673364l0.001468-172.125189h40.014196z m188.046615-77.35256a23.461609 23.461609 0 0 0-16.558459 6.904618l-61.717359 62.292744c-4.341807 4.291901-6.867922 10.346652-6.863519 16.54378-0.023485 6.191258 2.501163 12.278301 6.925168 16.664142a23.128414 23.128414 0 0 0 16.454243 6.801871c6.269052 0 12.135922-2.410158 16.564331-6.782789l61.801024-62.405766c9.090199-9.147444 9.081392-24.01938-0.032292-33.140403a23.275196 23.275196 0 0 0-16.4836-6.878197h-0.089537z m-493.866572 11.311009c-6.211807 0-12.093356 2.448321-16.561394 6.891407-9.027083 9.194414-9.032954 24.022315-0.083666 33.130128l61.950742 62.245774c4.283094 4.360888 10.301149 6.8826 16.468922 6.8826 6.264649 0 12.292979-2.520244 16.628914-6.914892 9.038826-9.090199 9.047632-23.957731-0.002935-33.118386l-61.862673-62.192932c-4.303643-4.36676-10.329038-6.900214-16.501214-6.926635h-0.036696z m-102.427301 248.569169c-12.905059 0-23.402896 10.536-23.402896 23.486562 0 12.947626 10.497837 23.482158 23.402896 23.482158h87.492249c12.869831 0 23.341248-10.534532 23.341248-23.482158s-10.468481-23.483626-23.336844-23.486562h-87.496653z m611.324333 0.158524c-12.885977 0-23.382347 10.505176-23.382346 23.42051 0 12.947626 10.497837 23.482158 23.401428 23.482159l87.379227-0.092473c12.896252 0 23.394089-10.534532 23.39409-23.482158 0-12.949094-10.500773-23.485094-23.4073-23.485094l-87.385099 0.157056zM436.87412 564.114524a23.583438 23.583438 0 0 0-16.58488 6.882601l-61.73644 62.150365c-8.997727 9.223771-8.983048 24.064882-0.02055 33.141871 4.424005 4.479782 10.315827 6.947184 16.592219 6.947184 6.279327 0 12.172618-2.46887 16.596623-6.95012l61.696809-62.107798c9.0491-9.16359 9.056439-23.995895 0.048438-33.115451-4.330064-4.481249-10.220419-6.948652-16.592219-6.948652z m370.421579 0.032292c-6.340975 0-12.226927 2.477677-16.584879 6.979477a23.443995 23.443995 0 0 0-6.826824 16.488003c-0.019082 6.194194 2.507034 12.275365 6.928103 16.6524l61.792218 62.084313c4.318322 4.385841 10.373072 6.920764 16.577541 6.920764 6.251438 0 12.292979-2.548133 16.62451-6.992687 9.012405-9.01534 9.025615-23.887276-0.044034-33.075819l-61.868544-62.132752c-4.500331-4.47391-10.384815-6.923699-16.598091-6.923699z m-185.150609 77.192568c-12.868364 0-23.336844 10.519854-23.336844 23.452802V752.708635c0 12.949094 10.468481 23.485094 23.336844 23.485094 12.903591 0 23.401428-10.536 23.401429-23.485094v-87.916449c0.001468-12.932948-10.497837-23.452802-23.401429-23.452802zM374.756047 401.166136c0 8.092083-6.520049 14.675248-14.534338 14.675248h-87.492249c-8.048048 0-14.595986-6.583165-14.595986-14.675248 0-8.095018 6.549406-14.679652 14.595986-14.679652h87.495185c8.011353 0.001468 14.531402 6.587569 14.531402 14.679652z m51.768486 176.050135a14.616535 14.616535 0 0 1 10.349587-4.294837c3.979256 0 7.64293 1.535338 10.296746 4.300708 5.667247 5.703942 5.667247 15.011378 0 20.750549l-61.717359 62.129815a14.413976 14.413976 0 0 1-10.32757 4.328597 14.41838 14.41838 0 0 1-10.326102-4.328597c-5.612937-5.684861-5.617341-14.987893 0.001468-20.747612l61.72323-62.138623z m195.620557 72.930023c8.045112 0 14.594518 6.569955 14.594518 14.645892V752.708635c0 8.092083-6.549406 14.678184-14.594518 14.678184-8.01282 0-14.529934-6.586101-14.529934-14.678184v-87.916449c0-8.077404 6.517114-14.645892 14.529934-14.645892z m185.150609-77.192568c3.870637 0 7.547522 1.538274 10.355459 4.333l61.843591 62.106331c5.681925 5.755316 5.678989 15.06422 0.005872 20.740274a14.346457 14.346457 0 0 1-10.312892 4.332999 14.502045 14.502045 0 0 1-10.340781-4.32566l-61.83772-62.131284a14.566629 14.566629 0 0 1-4.316853-10.398025 14.490303 14.490303 0 0 1 4.294836-10.304085c2.687575-2.806469 6.349782-4.353549 10.308488-4.35355zM436.973932 229.45634a14.336182 14.336182 0 0 1-10.268857-4.288966l-61.911111-62.206142c-5.605598-5.70541-5.605598-14.992297 0.01321-20.713853 2.806469-2.791791 6.481886-4.328596 10.349587-4.328596a14.535805 14.535805 0 0 1 10.292343 4.330064l61.843591 62.172382c5.665779 5.733299 5.665779 15.040735-0.001468 20.741742a14.428655 14.428655 0 0 1-10.317295 4.293369z m380.665484-15.500162a14.70754 14.70754 0 0 1-10.349588 4.243462 14.500578 14.500578 0 0 1-10.282067-4.250801 14.585711 14.585711 0 0 1-4.316854-10.414172 14.528466 14.528466 0 0 1 4.31245-10.339312l61.717359-62.292744a14.49911 14.49911 0 0 1 10.355459-4.296305 14.620939 14.620939 0 0 1 10.290874 4.296305c5.6922 5.696603 5.698071 14.989361 0.004404 20.718256l-61.732037 62.335311zM617.562561 602.30569c-115.232549 0-208.977705-94.342558-208.977704-210.304612 0-64.187697 29.191972-124.162756 80.100316-164.585006a14.860193 14.860193 0 0 1 3.84862-3.797246c0.265675-0.17467 26.470636-17.663726 26.470636-51.94756 0-0.71336 0.32292-1.225628 0.515205-1.536806-0.132104-0.339066-0.343469-0.923258-0.1688-1.56763L553.367525 12.122345c1.47369-6.776917 7.333221-11.509164 14.246645-11.509164h99.951092c6.847373 0 12.705436 4.729311 14.251049 11.509164l34.065128 156.365223c0.183477 0.698682-0.016146 1.263792-0.17467 1.629278 0.214301 0.321452 0.535754 0.839592 0.535754 1.55442 0 33.872845 26.094875 51.784632 26.392842 51.976916 1.420848 0.976099 2.401351 2.1665 3.108839 3.129389 51.345754 40.419314 80.79753 100.629224 80.79753 165.222039-0.002936 115.963522-93.746624 210.30608-208.979173 210.30608z m40.356199-562.655879l-2.098981-9.709619h-76.452787l-2.101916 9.709619h80.653684z m8.545638 39.158458l-2.151821-9.805027h-93.43985l-2.15329 9.805027h97.744961z m17.107423 78.222977l-10.709202-48.86661h-110.534063l-10.594713 48.86661h131.837978zM632.155612 367.277145c0 13.498058 10.911762 24.480275 24.318814 24.480275 8.048048 0 14.594518 6.583165 14.594518 14.676716 0 8.095018-6.547938 14.678184-14.594518 14.678184-14.601857 0-28.264311-6.222082-38.697563-17.571254-0.353744 0.626758-0.766201 1.299019-1.382685 1.886147-10.020796 10.113269-23.338312 15.683639-37.498356 15.683639h-0.186413c-8.01282 0-14.531402-6.611054-14.531402-14.738364 0-8.058323 6.54647-14.615067 14.593051-14.615068h0.124764c6.386478 0 12.41334-2.526115 16.978255-7.117451 4.614821-4.582529 7.154147-10.75177 7.154147-17.362824v-180.927695h-55.982593c-5.000857 31.643228-25.374176 51.402999-34.167876 58.604116a14.494706 14.494706 0 0 1-3.044255 3.022238c-45.794465 34.840137-72.058139 87.332257-72.058139 144.023806 0 99.777889 80.652216 180.952649 179.7872 180.952649 99.168745 0 179.850317-81.174759 179.850317-180.952649 0.001468-56.577059-26.240189-109.063308-71.965666-143.972432a12.640852 12.640852 0 0 1-3.039852-3.039852c-8.809846-7.193778-29.150873-26.900707-34.204572-58.640812h-56.045708l-0.001468 180.930631z m339.289151 48.564239l-87.37042 0.092472c-8.049516 0-14.594518-6.583165-14.594518-14.675248 0-8.058323 6.547938-14.6136 14.590114-14.613599l87.368953-0.157057h0.001468c8.050984 0 14.600389 6.586101 14.600389 14.678184s-6.547938 14.675248-14.595986 14.675248zM622.086378-128c-136.759573 0-265.334591 53.256854-362.038869 149.962599C163.344699 118.666877 110.086378 247.241895 110.086378 384.001468c0 136.758105 53.258322 265.333123 149.962599 362.037401C356.754722 842.743146 485.328272 896 622.086378 896c136.759573 0 265.333123-53.256854 362.034465-149.962599 96.704278-96.707213 149.961131-225.280763 149.961131-362.037401 0-136.762509-53.256854-265.337527-149.961131-362.037401-96.699874-96.705745-225.273424-149.962599-362.034465-149.962599z m0 980.333871c-258.239157 0-468.330936-210.093247-468.330936-468.332403s210.093247-468.333871 468.330936-468.333872S1090.415846 125.762311 1090.415846 384.001468 880.325535 852.333871 622.086378 852.333871zM622.086378-119.19309c-134.405192 0-260.769676 52.340935-355.810916 147.382175C171.235691 123.228856 118.893288 249.59334 118.893288 384.001468s52.342403 260.769676 147.382174 355.809447C361.316702 834.850687 487.681185 887.19309 622.086378 887.19309S882.857521 834.850687 977.895825 739.810915c95.038304-95.041239 147.380707-221.402787 147.380707-355.809447s-52.339467-260.771144-147.380707-355.810915c-95.038304-95.042707-221.402787-147.383642-355.809447-147.383643z m0 980.333872c-263.0947 0-477.137846-214.044614-477.137846-477.139314s214.043146-477.140782 477.137846-477.140782 477.136378 214.046081 477.136378 477.140782S885.182546 861.140782 622.086378 861.140782z"  horiz-adv-x="1318" />

    
    <glyph glyph-name="yiyanghuatan" unicode="&#58912;" d="M350.683 302.79H456.4c0-65.796-12.018-117.597-36.102-155.397s-65.42-56.7-124.101-56.7c-69.238 0-117.313 17.91-144.32 53.777-26.724 36.102-40.158 95.585-40.158 178.586V442.727c0 89.127 13.999 150.825 41.997 185.231 28.233 34.595 72.913 51.94 134.045 51.94 57.456 0 98.931-15.364 124.478-46.047 25.546-30.683 38.271-78.193 38.271-142.483H346.676c0 34.832-3.535 60.754-10.7 77.675s-20.644 25.406-40.487 25.406c-49.867 0-74.752-39.263-74.752-117.831v-183.393c0-42.23 6.41-72.302 19.135-90.211 13.009-17.91 31.814-26.866 56.323-26.866 18.665 0 32.428 9.426 41.241 28.374 8.861 19.135 13.243 51.893 13.243 98.272z m185.232 20.268V435.753c0 93.04 14.234 156.998 42.703 191.831s75.601 52.271 141.398 52.271c73.62 0 122.734-19.655 147.29-58.915 24.557-39.026 36.811-100.768 36.811-185.231v-113.402c0-83.472-13.385-143.001-40.158-178.586-26.489-35.349-73.999-53.025-142.483-53.025-66.268 0-113.778 16.919-142.483 50.81s-43.079 94.407-43.079 181.555z m109.016 153.559v-183.393c0-78.052 24.462-117.076 73.29-117.076 51.326 0 76.969 37.566 76.969 112.695V468.89c0 83.708-25.027 125.561-75.13 125.561s-75.13-39.308-75.13-117.831z"  horiz-adv-x="1024" />

    
    <glyph glyph-name="lixian" unicode="&#58906;" d="M512 896A512 512 0 1 0 0 384 512 512 0 0 0 512 896zM307.2 435.2a51.2 51.2 0 0 1 0-102.4h409.6a51.2 51.2 0 0 1 0 102.4z"  horiz-adv-x="1025" />

    
    <glyph glyph-name="jihuo2" unicode="&#58903;" d="M460.8 204.8c-10.24 0-15.36 5.12-20.48 10.24L250.88 404.48c-10.24 10.24-10.24 30.72 0 46.08 10.24 10.24 30.72 10.24 46.08 0L460.8 281.6l266.24 266.24c10.24 10.24 30.72 10.24 46.08 0 10.24-10.24 10.24-30.72 0-46.08l-291.84-291.84c-5.12 0-10.24-5.12-20.48-5.12zM512-87.04C250.88-87.04 40.96 122.88 40.96 384S250.88 855.04 512 855.04s471.04-209.92 471.04-471.04-209.92-471.04-471.04-471.04zM512 793.6c-225.28 0-409.6-184.32-409.6-409.6s184.32-409.6 409.6-409.6 409.6 184.32 409.6 409.6-184.32 409.6-409.6 409.6z"  horiz-adv-x="1024" />

    
    <glyph glyph-name="tingzhi" unicode="&#58911;" d="M982.305453 581.108335c-25.739233 60.810819-62.466559 115.299721-109.278847 162.262531-46.962811 46.962811-101.602234 83.539615-162.262531 109.278847-63.068646 26.642364-129.749816 40.189328-198.688814 40.189329s-135.770689-13.546965-198.688814-40.189329c-60.660297-25.739233-115.299721-62.466559-162.112009-109.278847-46.962811-46.962811-83.690137-101.602234-109.42937-162.262531C15.052183 518.039688 1.505218 451.358518 1.505218 382.419521s13.546965-135.770689 40.189329-198.688814c25.739233-60.810819 62.466559-115.299721 109.429369-162.262531 46.962811-46.962811 101.451712-83.690137 162.262531-109.278848 62.918124-26.642364 129.749816-40.189328 198.688814-40.189328s135.770689 13.546965 198.688814 40.189328c60.810819 25.739233 115.299721 62.466559 162.262531 109.278848 46.962811 46.962811 83.690137 101.451712 109.278847 162.262531 26.642364 63.068646 40.189328 129.749816 40.189329 198.688814s-13.546965 135.620168-40.189329 198.688814zM825.160664 69.183595c-83.690137-83.539615-194.925768-129.749816-313.085403-129.749816-118.310157 0-229.545789 46.05968-313.085404 129.749816C115.299721 152.873732 69.240041 264.109364 69.240041 382.268999c0 118.310157 46.05968 229.395267 129.749816 313.085403 83.690137 83.690137 194.925768 129.749816 313.085404 129.749817 118.310157 0 229.395267-46.05968 313.085403-129.749817 83.539615-83.690137 129.749816-194.925768 129.749817-313.085403-0.301044-118.159635-46.210201-229.395267-129.749817-313.085404zM339.878289 633.489931h113.945024v-495.668382h-113.945024zM568.671468 633.489931h113.945025v-495.668382h-113.945025z"  horiz-adv-x="1024" />

    
    <glyph glyph-name="weihu" unicode="&#58917;" d="M860.8-80c-25.6 0-48 9.6-67.2 28.8L576 163.2c-3.2 3.2-6.4 9.6-6.4 12.8 0 6.4 3.2 9.6 6.4 12.8l80 80c3.2 3.2 9.6 6.4 12.8 6.4 6.4 0 9.6-3.2 12.8-6.4l217.6-214.4c35.2-35.2 41.6-86.4 12.8-118.4-16-6.4-32-16-51.2-16z m-246.4 259.2l204.8-201.6c12.8-12.8 28.8-19.2 41.6-19.2 9.6 0 16 3.2 22.4 9.6 6.4 6.4 9.6 19.2 6.4 28.8-3.2 12.8-9.6 22.4-19.2 32l-204.8 201.6-51.2-51.2z m-432-224c-28.8 0-57.6 9.6-76.8 32-22.4 22.4-35.2 54.4-28.8 92.8 3.2 35.2 22.4 67.2 48 96L512 563.2v6.4c-6.4 28.8-19.2 86.4 25.6 169.6 32 60.8 153.6 105.6 169.6 108.8h3.2c9.6 0 16-3.2 19.2-12.8 6.4-12.8 0-22.4-19.2-44.8-22.4-25.6-54.4-64-60.8-102.4-3.2-28.8 3.2-83.2 35.2-115.2 28.8-28.8 76.8-44.8 108.8-44.8h12.8c28.8 6.4 70.4 38.4 105.6 67.2 25.6 22.4 32 25.6 41.6 25.6 6.4 0 12.8-3.2 16-9.6 3.2-3.2 6.4-9.6 3.2-19.2v-3.2c-32-105.6-80-153.6-115.2-172.8-32-19.2-70.4-25.6-118.4-25.6H681.6L294.4 3.2c-32-32-73.6-48-112-48z m3.2 166.4c-28.8 0-54.4-25.6-54.4-54.4 0-28.8 25.6-54.4 54.4-54.4s54.4 25.6 54.4 54.4c0 28.8-22.4 54.4-54.4 54.4zM620.8 768c-25.6-16-44.8-32-51.2-48-38.4-73.6-28.8-115.2-22.4-140.8 3.2-16 6.4-28.8-3.2-38.4L166.4 160h22.4c51.2 0 89.6-41.6 89.6-92.8v-22.4l16 12.8 361.6 364.8c6.4 6.4 16 6.4 25.6 6.4H736c41.6 0 76.8 6.4 102.4 22.4 22.4 12.8 44.8 35.2 60.8 67.2l-12.8 12.8c-32-22.4-54.4-35.2-73.6-38.4-6.4 0-12.8-3.2-19.2-3.2-38.4 0-99.2 16-137.6 57.6-44.8 44.8-51.2 115.2-44.8 147.2 3.2 19.2 9.6 38.4 25.6 60.8l-16 12.8z m-416-128l-64 35.2-67.2 96 35.2 32L198.4 736l32-64 176-176-28.8-28.8L204.8 640z"  horiz-adv-x="1024" />

    
    <glyph glyph-name="dianya" unicode="&#58942;" d="M511.169124 129.499189c-139.948353 0-253.958936 114.010584-253.958936 253.958936C257.210188 523.334227 371.220772 637.344811 511.169124 637.344811S765.12806 523.334227 765.12806 383.385875c-0.07225-139.876102-114.082834-253.886686-253.958936-253.886686zM649.455726 510.834968c-11.487758 5.491004-25.359769 0.578-30.850773-10.909758L511.169124 272.987794 403.661046 499.92521c-5.491004 11.487758-19.074014 16.400762-30.850773 10.909758-11.487758-5.491004-16.400762-19.074014-10.909758-30.850773l127.882594-270.287448c4.118253-8.453256 12.282509-13.36626 21.313765-13.077259 8.742256 0 17.195513 4.913004 21.241516 13.077259L660.365484 479.984195c5.418754 11.487758 0.50575 25.359769-10.909758 30.850773z m0 0"  horiz-adv-x="1024" />

    
    <glyph glyph-name="dianya1" unicode="&#58949;" d="M519.56742189-35.114121400000045c-234.52955557 0-425.59183526 191.06228137-425.59183527 425.59183525s191.06228137 425.59183526 425.59183527 425.59183525 425.59183526-191.06228137 425.59183525-425.59183525-191.06228137-425.59183526-425.59183525-425.59183525zM698.2796689 555.75021849c-14.89268809 7.14364653-32.81234292 0.72647203-39.83491081-14.04513575L519.68850054 248.45233052000003 380.81116599 541.58400407c-7.14364653 14.89268809-24.70006701 21.18878225-39.83491244 14.04513574-14.89268809-7.14364653-21.18878225-24.70006701-14.04513572-39.83491076l165.2725046-349.19113948c5.3274648-10.89708865 15.86131746-17.31426317 27.48487811-16.95102546 11.26032465 0 22.15741328 6.29609587 27.48487812 16.95102546l165.39358496 349.19113948c6.90148919 14.89268809 0.48431469 32.81234292-14.28729472 39.95598944z"  horiz-adv-x="1024" />

    
    <glyph glyph-name="xiugaimima" unicode="&#59574;" d="M959.43406589 571.00731978c19.23395055 23.23308798 65.31925746 47.22791698 44.94269539 83.41059651-31.99310533 32.56441111-62.27229485 69.31839491-99.59758442 96.16975127-34.46876219 7.04610006-50.65575011-30.27918951-74.07927484-47.79922275 39.42007589-46.08530691 86.07668859-87.40973538 128.73416387-131.78112503zM653.97608163 264.02585497999996c95.59844697 95.59844697 190.62558671 191.19689249 285.46229268 286.795338-43.0383443 43.60965007-86.26712386 87.40973538-129.87677392 130.44807966-95.59844697-95.59844697-190.62558671-191.19689249-285.46229266-287.36664521 43.0383443-43.60965007 86.26712386-86.83842963 129.8767739-129.87677245z m-148.53941868 111.78543344c-17.52003325-60.55837901-34.46876219-121.11675654-51.79836166-182.43687513 58.27315595 16.37742318 89.69495699 26.28005061 147.96811439 41.89573275 15.80611741 5.33218423 26.28005061 8.18871158 33.70702118 11.04523896-41.32442846 40.37225219-88.55234546 89.31408646-129.87677391 129.49590342zM442.40262855 492.92890754H237.30396973v184.15079095c0 62.84360061 51.79836166 113.68978599 115.9750076 113.68978599h178.24730243c64.17664593 0 108.35760177-40.18181694 108.3576003-103.21585279l0.57130576-11.04523896c0-21.51917215 18.09133902-39.03920687 39.61051116-39.03920539 22.09047791 0 39.61051116 17.52003325 39.61051264 39.03920539v9.90262889c0 107.78629601-79.2210238 185.29340249-188.72123562 185.2934025h-178.24730243c-109.50021183 0-198.62386305-87.40973538-198.62386308-195.19603139v-184.15079096h-59.41576746c-53.70271274 0-79.2210238-41.89573277-79.22102381-90.26626275v-505.79576314h854.29209169V287.83024873h-82.83929073v-310.02842744H99.23848422V402.66264478c0 3.42783314 0.57130577 6.47479575 0.57130577 8.76001735h343.16414284m26.28005209-67.60447907c-5.33218423 1.14261153-20.94786639 1.71391584-26.85135637 1.71391584-49.51314006 0-89.12365122-39.03920687-89.12365122-87.98103968 0-30.27918951 15.80611741-57.13054587 39.61051116-72.93666329v-102.64454704c0-26.85135636 22.09047791-48.94183428 49.51314006-48.9418343s49.51314006 21.51917215 49.51313859 48.9418343v102.64454704l-65.89056177-13.33046057 43.22877955 172.5342477z"  horiz-adv-x="1024" />

    
    <glyph glyph-name="no-signal" unicode="&#58889;" d="M122.269 193.471h145.714v-228.979h-145.714v228.979zM345.988 319.70000000000005h145.714v-353.875h-145.714v353.875zM583.642 539.754h142.105v-568.421h-142.105v568.421zM801.202 667.78h155.428v-688.323h-155.428v688.323zM1023.242 803.208h155.427v-843.75h-155.428v843.75z"  horiz-adv-x="1294" />

    
    <glyph glyph-name="gas-station" unicode="&#58891;" d="M976.7230782 669.64395833a39.06984375 39.06984375 0 0 1-15.50390625 29.7675c-31.62796875 27.90703125-85.5815625 75.03890625-102.32578125 91.16296875a32.248125 32.248125 0 0 1-44.65125 0 28.5271875 28.5271875 0 0 1 0-41.55046875c14.26359375-13.02328125 46.51171875-39.69 62.015625-62.015625-15.50390625-18.6046875-40.31015625-37.82953125-55.8140625-54.57375a7.441875 7.441875 0 0 1 0-5.58140625v-20.46515625c0-3.7209375 4.34109375-4.96125 6.2015625-4.96125h79.38a6.82171875 6.82171875 0 0 0 6.82171875-5.58140625v-502.3265625c0-27.90703125-15.50390625-36.58921875-31.62796875-36.58921875a32.248125 32.248125 0 0 0-32.86828125 36.58921875V504.68239583c0 37.209375-4.34109375 53.95359375-47.131875 56.43421875H728.6605782V823.44270833a62.015625 62.015625 0 0 1-62.015625 62.015625H170.5199532a62.015625 62.015625 0 0 1-62.015625-62.015625v-839.6915625H72.5352657A26.0465625 26.0465625 0 0 1 46.4887032-44.77604167000004v-37.82953125a27.286875 27.286875 0 0 1 26.0465625-24.18609375h691.47421875a27.286875 27.286875 0 0 1 26.0465625 26.66671875V-44.77604167000004a26.0465625 26.0465625 0 0 1-26.0465625 25.42640625H728.6605782V500.96145833h44.03109375a16.74421875 16.74421875 0 0 0 16.74421875-15.50390625v-395.03953125a91.783125 91.783125 0 0 1 94.26375-101.705625 88.0621875 88.0621875 0 0 1 93.0234375 100.4653125V669.64395833M614.5518282 513.36458333a42.170625 42.170625 0 0 0-42.79078125-41.55046875h-310.078125A42.170625 42.170625 0 0 0 221.3727657 513.36458333V731.65958333a42.170625 42.170625 0 0 0 42.170625 41.55046875h310.078125a42.170625 42.170625 0 0 0 42.79078125-41.55046875V513.36458333"  horiz-adv-x="1024" />

    
    <glyph glyph-name="fadianji" unicode="&#58892;" d="M890.40720185 501.49051428v107.00389407h-106.03178717v217.10831893h-537.0046385v-217.10831893h-108.98904544v-107.00389407h-51.38888957v-106.77878056h51.38888957v-107.00389401h108.98904544v-110.76955225h-53.16937929v-212.67753365H835.77453442v212.67753365h-51.39911974V287.70783971000003h106.03178717v107.00389401h51.38888094v106.77878056h-51.38888094z m-591.63730601 272.71309331h434.20639914v-597.25508135h-434.20639914v597.25508135z m-108.9890538-435.09664844v217.98832934h57.60017266v-217.98832934h-57.60017266z m594.59457264-323.43685559h-538.77489811v109.87930293h538.77489811v-109.87930293z m54.63266746 323.43685559h-54.63266746v217.98832934h54.63266746v-217.98832934zM516.00100989 551.94821733h52.49402199v51.39911954h-106.16481243v-51.39911954h-52.49402205v-51.39911974h-56.42340396v-51.38888103h161.11469822v-51.39911966h-52.49402201v-51.39911968h106.16481252v51.39911968h52.49402189v51.39911966h54.84755092v51.38888103h-159.53884509z"  horiz-adv-x="1024" />

    
    <glyph glyph-name="jihuo3" unicode="&#58893;" d="M509.5 633.4c-68.4 0-132.6-26.6-181-75s-75-112.6-75-181 26.6-132.6 75-181 112.6-75 181-75 132.6 26.6 181 75 75 112.6 75 181-26.6 132.6-75 181-112.7 75-181 75z m0-426c-93.7 0-170.1 76.3-170.1 170.1s76.3 170.1 170.1 170.1c93.7 0 170.1-76.3 170.1-170.1s-76.3-170.1-170.1-170.1z m115.9-98.3H393.6c-17.5 0-31.6-14.1-31.6-31.6s14.1-31.6 31.6-31.6h231.8c17.5 0 31.6 14.1 31.6 31.6s-14.1 31.6-31.6 31.6z m-46.3-75.7H440c-17.5 0-31.6-14.1-31.6-31.6s14.1-31.6 31.6-31.6h139c17.5 0 31.6 14.1 31.6 31.6 0.1 17.4-14.1 31.6-31.5 31.6z m-69.6 611.5c17.5 0 31.6 14.1 31.6 31.6v89.8c0 17.5-14.1 31.6-31.6 31.6s-31.6-14.1-31.6-31.6v-89.8c0-17.4 14.1-31.6 31.6-31.6z m174.8-46c5.5-3.9 11.8-5.8 18.1-5.8 10 0 19.8 4.7 25.9 13.5l51.4 73.5c10 14.3 6.5 34-7.7 44.1-14.3 10-34 6.5-44.1-7.7L676.6 643c-10-14.3-6.6-34 7.7-44.1z m220.2-75c-6.1 16.4-24.4 24.6-40.7 18.5L779.7 511c-16.4-6.1-24.6-24.4-18.5-40.7 4.7-12.7 16.8-20.6 29.7-20.6 3.7 0 7.4 0.7 11.1 2l84.1 31.4c16.2 6.2 24.5 24.4 18.4 40.8z m-608.8 97.7c6.1-8.7 16-13.5 25.9-13.5 6.2 0 12.6 1.9 18.1 5.8 14.3 10 17.8 29.8 7.7 44.1L296 731.5c-10 14.3-29.8 17.8-44.1 7.7-14.3-10-17.8-29.8-7.7-44.1l51.5-73.5z m-32.9-136.3c6.1 16.4-2.2 34.6-18.5 40.7l-84.1 31.4c-16.4 6.1-34.6-2.2-40.7-18.5-6.1-16.4 2.2-34.6 18.5-40.7l84.1-31.4c3.6-1.4 7.3-2 11.1-2 12.8-0.1 24.9 7.7 29.6 20.5z"  horiz-adv-x="1024" />

    
    <glyph glyph-name="MYmianliuliangqia-" unicode="&#58923;" d="M775.912727 298.821818h-60.509091a85.178182 85.178182 0 0 0-46.545454 12.567273l-46.545455 28.858182a23.272727 23.272727 0 0 0 24.203637 39.098182l46.545454-28.858182a39.098182 39.098182 0 0 1 20.48-5.585455h60.509091v69.818182H721.454545a23.272727 23.272727 0 1 0 0 46.545455h54.458182v32.116363a61.44 61.44 0 0 1-61.44 61.44h-232.727272A61.44 61.44 0 0 1 418.909091 493.381818v-24.669091h60.509091a85.178182 85.178182 0 0 0 46.545454-12.567272l46.545455-29.323637a22.807273 22.807273 0 1 0-24.203636-39.098182l-46.545455 29.323637a39.098182 39.098182 0 0 1-20.48 5.585454H418.909091v-70.283636h54.458182a23.272727 23.272727 0 0 0 0-46.545455H418.909091v-32.116363a61.44 61.44 0 0 1 61.44-61.44h232.727273a61.44 61.44 0 0 1 61.44 61.44zM367.709091 740.538182h501.76a93.090909 93.090909 0 0 0 93.090909-93.090909v-527.825455a93.090909 93.090909 0 0 0-93.090909-93.090909H154.530909a93.090909 93.090909 0 0 0-93.090909 93.090909v409.6a76.8 76.8 0 0 0 36.305455 65.163637l204.8 127.534545a122.88 122.88 0 0 0 65.163636 18.618182z m0-61.44a61.44 61.44 0 0 1-32.581818-9.309091L131.258182 542.254545a15.36 15.36 0 0 1-7.447273-13.032727v-409.6a30.72 30.72 0 0 1 30.72-30.72h714.938182a30.72 30.72 0 0 1 30.72 30.72V648.378182a30.72 30.72 0 0 1-30.72 30.72zM479.883636 616.727273h232.727273A122.88 122.88 0 0 0 837.818182 493.381818v-219.229091A122.88 122.88 0 0 0 714.472727 151.272727h-232.727272a122.88 122.88 0 0 0-122.88 122.88V493.381818A122.88 122.88 0 0 0 479.883636 616.727273z"  horiz-adv-x="1024" />

    
    <glyph glyph-name="dianliu" unicode="&#58905;" d="M1097.113078-127.999269h-7.314087a73.140872 73.140872 0 0 0-60.706923 44.615932L714.586318 676.550322l-292.563487-405.20043A73.140872 73.140872 0 0 0 365.704359 237.705091H73.140872a73.140872 73.140872 0 1 0 0 146.281744h255.261643L672.164613 865.253772a73.140872 73.140872 0 0 0 127.265117-14.628175l312.311523-751.156754 219.422615 325.47688A73.140872 73.140872 0 0 0 1389.676566 457.127707h438.845231a73.140872 73.140872 0 1 0 0-146.281744h-399.34916l-270.621226-405.931839A73.140872 73.140872 0 0 0 1097.113078-127.999269z"  horiz-adv-x="1901" />

    
    <glyph glyph-name="dianliu1" unicode="&#58950;" d="M858.94569-28.508221h-45.409068v-33.163926c0-36.735426-29.592427-66.327853-66.327853-66.327853H313.016442c-36.735426 0-66.327853 29.592427-66.327852 66.327853v33.163926h-45.409068m231.127055 441.335326l-62.246139-88.777279h-125.002491v56.633781h95.410065l99.491779 141.839562 102.04285-199.493772 76.532137 134.186348 54.592925-109.696064H843.639263V290.885899h-205.616343l-22.959641 45.919283-75.511709-133.165919-107.144993 209.187842z m214.800199 281.638266l-42.857997-65.307424h81.63428l-132.655705-146.941704 48.470354 102.04285h-57.65421l40.306926 110.206278h62.756352zM794.14848-47.896363h-533.684105c-100.512207 0-182.146487 81.63428-182.146488 182.146488V713.853513c0 100.512207 81.63428 182.146487 182.146488 182.146487h533.684105c100.512207 0 182.146487-81.63428 182.146488-182.146487v-579.603388c0-100.512207-81.63428-182.146487-182.146488-182.146488z m-533.684105 872.466368c-61.22571 0-110.716492-49.490782-110.716493-110.716492v-579.603388c0-61.22571 49.490782-110.716492 110.716493-110.716493h533.684105c61.22571 0 110.716492 49.490782 110.716493 110.716493V713.853513c0 61.22571-49.490782 110.716492-110.716493 110.716492h-533.684105z"  horiz-adv-x="1024" />

    
    <glyph glyph-name="dianya2" unicode="&#58989;" d="M170.496 627.712h682.496c24.576 0 44.032 19.456 44.032 44.032s-19.456 44.032-44.032 44.032h-77.824v29.184H716.8v-29.184h-170.496v29.184H487.424v-29.184H316.928v29.184H258.56v-29.184H170.496c-24.576 0-44.032-19.456-44.032-44.032 0.512-19.456 19.968-44.032 44.032-44.032z m0 0v-512h682.496v512H170.496zM448.512 174.08l29.184 180.224H385.024l165.888 214.528-29.184-179.712H614.4l-165.888-215.04z m404.992-62.976H170.496c-24.576 0-44.032-19.456-44.032-44.032s19.456-44.032 44.032-44.032h682.496c24.576 0 44.032 19.456 44.032 44.032s-19.456 44.032-43.52 44.032z"  horiz-adv-x="1024" />

    
    <glyph glyph-name="jilubiao" unicode="&#59088;" d="M809 169h96v-70H739V265h70v-96z m-8.197-232.7C677.717-63.7 578 36.203 578 159.197 578 282.19 677.717 382 800.803 382c123.087 0 222.804-99.903 222.804-222.897 0-122.993-99.717-222.803-222.804-222.803z m0.838 376.056c-84.54 0-153.16-68.619-153.16-153.16 0-84.54 68.62-153.16 153.16-153.16 84.541 0 153.16 68.62 153.16 153.16 0 84.541-68.526 153.16-153.16 153.16zM896 448h-80V752H144v-672h368v-80H64V832h832v-384zM256 640h448v-80H256zM256 488h448v-80H256zM256 336h256v-80H256z"  horiz-adv-x="1024" />

    
    <glyph glyph-name="dianya3" unicode="&#58928;" d="M229.76 540.8c-6.50666667 0-13.01333333 1.81333333-18.88 5.65333333-15.68 10.45333333-19.94666667 31.57333333-9.6 47.36 69.54666667 104.74666667 186.02666667 167.25333333 311.68 167.25333334 124.37333333 0 240.21333333-61.65333333 309.97333333-164.8 10.56-15.57333333 6.4-36.8-9.17333333-47.36-15.57333333-10.56-36.8-6.4-47.36 9.17333333-57.06666667 84.48-151.78666667 134.82666667-253.44 134.82666667-102.61333333 0-197.86666667-51.09333333-254.72-136.74666667-6.61333333-9.92-17.38666667-15.36-28.48-15.36zM699.09333333 105.17333332999999c-13.22666667 0-25.92 7.78666667-31.46666666 20.8L511.46666667 492.05333333 356.69333333 126.08000000000004c-7.36-17.38666667-27.41333333-25.49333333-44.69333333-18.13333333-17.38666667 7.36-25.49333333 27.41333333-18.13333333 44.69333333L473.81333333 578.13333333l0.96 1.70666667c7.46666667 13.12 21.44 21.22666667 36.58666667 21.33333333 15.04 0 29.12-8.10666667 36.58666667-21.22666666l0.96-1.70666667 0.74666666-1.81333333 180.69333334-423.68c7.36-17.38666667-0.64-37.44-18.02666667-44.8-4.26666667-1.92-8.85333333-2.77333333-13.22666667-2.77333334zM369.38666667 293.86666667h275.52M369.38666667 328h275.62666666v-68.26666667H369.38666667z"  horiz-adv-x="1024" />

    
    <glyph glyph-name="dianhuo" unicode="&#59026;" d="M512 854.109091C256 854.109091 46.545455 644.654545 46.545455 388.654545s209.454545-465.454545 465.454545-465.454545 465.454545 209.454545 465.454545 465.454545-209.454545 465.454545-465.454545 465.454546z m186.181818-539.927273c-23.272727-83.781818-111.709091-125.672727-116.363636-125.672727l-4.654546-4.654546-4.654545 4.654546c-32.581818 18.618182-55.854545 83.781818-65.163636 125.672727-37.236364-65.163636-27.927273-125.672727-27.927273-125.672727l4.654545-23.272727-23.272727 9.309091c-51.2 13.963636-83.781818 60.509091-97.745455 116.363636-13.963636 60.509091 9.309091 121.018182 51.2 158.254545C484.072727 509.672727 465.454545 593.454545 465.454545 593.454545L460.8 616.727273h18.618182c60.509091-4.654545 97.745455-27.927273 116.363636-65.163637 18.618182-37.236364 9.309091-83.781818 0-107.054545 18.618182 4.654545 32.581818 23.272727 32.581818 23.272727l9.309091 23.272727 13.963637-18.618181c41.890909-55.854545 60.509091-111.709091 46.545454-158.254546z"  horiz-adv-x="1024" />

    
    <glyph glyph-name="CityWorks-" unicode="&#58909;" d="M900.893267 895.985092H124.385437A98.394574 98.394574 0 0 1 24.287061 797.164567v-825.918092A98.394574 98.394574 0 0 1 124.385437-126.296198h776.50783a98.394574 98.394574 0 0 1 97.968623 97.968624V797.164567A98.394574 98.394574 0 0 1 900.893267 895.985092z m21.723477-924.312666a21.723477 21.723477 0 0 0-21.723477-21.723478H124.385437a21.723477 21.723477 0 0 0-21.723477 21.723478V797.164567a21.723477 21.723477 0 0 0 21.723477 21.723477h776.50783a21.723477 21.723477 0 0 0 21.723477-21.723477zM428.08817 612.302034a92.431267 92.431267 0 0 0 85.190108 65.596383 92.857217 92.857217 0 0 0 87.74581-65.596383l156.323847-434.895499a104.357882 104.357882 0 0 0 6.389259-31.094389q-2.981654-46.854559-56.225471-46.854559a58.781174 58.781174 0 0 0-59.633076 37.483647l-21.723477 74.967295H402.957088l-25.131081-75.393245a58.781174 58.781174 0 0 0-59.633076-37.483648 48.984312 48.984312 0 0 0-56.22547 50.262164 91.153415 91.153415 0 0 0 3.407604 22.575378v6.389258z m9.370912-291.350168h150.36054l-75.393246 231.717093z"  horiz-adv-x="1024" />

    
    <glyph glyph-name="dianya4" unicode="&#58937;" d="M434.56 768L215.168 384H416a32 32 0 0 0 26.624-49.728l-141.696-212.48L708.8 448H544a32 32 0 0 0-22.656 54.656L786.752 768H434.56zM356.224 320H160a32 32 0 0 0-27.776 47.872l256 448A32 32 0 0 0 416 832h448a32 32 0 0 0 22.656-54.656L621.248 512H800a32 32 0 0 0 19.968-56.96l-640-512c-28.544-22.848-66.88 12.288-46.592 42.688L356.224 320z"  horiz-adv-x="1024" />

    
    <glyph glyph-name="dianya5" unicode="&#59263;" d="M434.56 768L215.168 384H416a32 32 0 0 0 26.624-49.728l-141.696-212.48L708.8 448H544a32 32 0 0 0-22.656 54.656L786.752 768H434.56z m-78.336-448H160a32 32 0 0 0-27.776 47.872l256 448A32 32 0 0 0 416 832h448a32 32 0 0 0 22.656-54.656L621.248 512H800a32 32 0 0 0 19.968-56.96l-640-512c-28.544-22.848-66.88 12.288-46.592 42.688L356.224 320z"  horiz-adv-x="1024" />

    
    <glyph glyph-name="eryanghuatan1" unicode="&#58883;" d="M772.433 547.06c88.1455 5.51564 100.259 12.5673 152.215-37.0618 82.7462 39.1098 33.0938 179.398-60.0902 149.783 4.54982 65.5942-119.936 181.097-211.119 32.512 2.95564-1.08218 117.969-40.9251 118.993-145.233ZM631.913 381.70799999999997c-22.5164 0-40.5295-8.00582-54.0625-23.5753-13.0095-15.5113-20.0727-37.0153-20.0727-64.1978h0.512c0-26.4262 6.49309-46.9527 20.0145-62.0684 13.5331-14.9993 31.104-22.9585 53.6087-22.9585 23.0284 0 41.1578 7.45891 53.1433 21.888 12.0436 15.1156 18.0247 36.2007 18.0247 64.2327s-5.98109 49.1171-18.0247 64.1396c-11.9855 15.0342-30.1265 22.5396-53.1433 22.5396ZM818.025 490.961l-99.712 3.51418c-36.5615 271.034-413.289 317.58-493.44-45.0676l-39.0516-2.048c-205.37-99.6305-124.707-321.676-32-354.199v-0.570182h668.707c158.743 41.6349 193.292 313.204-4.50327 398.371ZM453.132 364.207a88.2036 88.2036 0 0 1-54.0975 18.0131c-23.0865 0-42.1236-8.00582-56.6225-24.0291-14.5571-16.0233-22.0625-37.5273-22.0625-64.1862 0-26.4262 7.04-46.9527 20.5265-62.0684 14.0451-14.9993 32.0582-22.528 55.6451-22.528 19.5607 0 38.5513 6.55127 56.0407 19.5491v-38.0509c-17.5011-10.5891-38.5396-15.5229-63.6044-15.5229-33.0938 0-59.6247 10.5425-79.6393 32.0465-20.0145 20.9804-30.0102 48.5236-30.0102 82.5949 0 37.632 11.0196 67.6887 32.5702 90.7171 21.4924 23.0284 51.0487 34.5484 87.1447 34.5484 21.0269 0 39.04-3.584 54.0975-11.008v-40.0756ZM713.076 208.38400000000001c-21.0385-21.9811-48.5469-33.5244-83.6655-33.5244-34.0596 0-61.6262 10.5658-82.1411 32.0465-20.5265 21.4342-30.5222 50.0247-30.5222 85.1549v0.384c0 38.1556 10.5076 67.7004 31.4764 89.7629 21.0967 22.0625 49.6291 32.5585 86.2371 32.5585 34.56 0 61.0444-10.5542 80.6051-31.5927 19.5607-21.0735 29.6145-50.1411 29.6145-87.1331 0-36.0378-10.5775-65.536-31.6044-87.6567Z"  horiz-adv-x="1024" />

    
    <glyph glyph-name="chanpin" unicode="&#59445;" d="M423.7 416.5H163.4c-30.8 0-55.8 25-55.8 55.8V732.6c0 30.8 25 55.8 55.8 55.8h260.3c30.8 0 55.8-25 55.8-55.8v-260.3c0-30.7-25.1-55.8-55.8-55.8zM163.4 751.2c-10.3 0-18.6-8.3-18.6-18.6v-260.3c0-10.3 8.3-18.6 18.6-18.6h260.3c10.3 0 18.6 8.3 18.6 18.6V732.6c0 10.3-8.3 18.6-18.6 18.6H163.4z m697.2-334.7H600.3c-30.8 0-55.8 25-55.8 55.8V732.6c0 30.8 25 55.8 55.8 55.8h260.3c30.8 0 55.8-25 55.8-55.8v-260.3c0-30.7-25-55.8-55.8-55.8zM600.3 751.2c-10.3 0-18.6-8.3-18.6-18.6v-260.3c0-10.3 8.3-18.6 18.6-18.6h260.3c10.3 0 18.6 8.3 18.6 18.6V732.6c0 10.3-8.3 18.6-18.6 18.6H600.3zM423.7-20.4H163.4c-30.8 0-55.8 25-55.8 55.8V295.7c0 30.8 25 55.8 55.8 55.8h260.3c30.8 0 55.8-25 55.8-55.8v-260.3c0-30.8-25.1-55.8-55.8-55.8zM163.4 314.3c-10.3 0-18.6-8.3-18.6-18.6v-260.3c0-10.3 8.3-18.6 18.6-18.6h260.3c10.3 0 18.6 8.3 18.6 18.6V295.7c0 10.3-8.3 18.6-18.6 18.6H163.4z m697.2-334.7H600.3c-30.8 0-55.8 25-55.8 55.8V295.7c0 30.8 25 55.8 55.8 55.8h260.3c30.8 0 55.8-25 55.8-55.8v-260.3c0-30.8-25-55.8-55.8-55.8zM600.3 314.3c-10.3 0-18.6-8.3-18.6-18.6v-260.3c0-10.3 8.3-18.6 18.6-18.6h260.3c10.3 0 18.6 8.3 18.6 18.6V295.7c0 10.3-8.3 18.6-18.6 18.6H600.3z m0 0"  horiz-adv-x="1024" />

    
    <glyph glyph-name="voltage" unicode="&#58884;" d="M119.97259911 536.78473388a43.18812334 43.18812334 0 0 0-35.94061669 67.07655441A514.31656289 514.31656289 0 0 0 939.07584511 607.2623531300001a43.18812334 43.18812334 0 1 0-71.5303292-48.35720215 427.94031621 427.94031621 0 0 1-711.51083437-2.87470897 43.18812334 43.18812334 0 0 0-36.06208243-19.24570813zM510.70364756-66a52.04168876 52.04168876 0 0 0-45.05061092 26.22328857l-1.2551546 2.21339092-196.39799034 464.27232569a43.18812334 43.18812334 0 0 0 79.54712403 33.64624687L510.83861065 74.15895647000002l164.73569765 386.31776219a43.18812334 43.18812334 0 0 0 79.45265039-33.88918009l-198.00404911-464.27232567-1.25515463-2.19989444a52.04168876 52.04168876 0 0 0-45.06410739-26.11531846z"  horiz-adv-x="1024" />

    
    <glyph glyph-name="lixian1" unicode="&#59013;" d="M982.588378 582.393832a529.319741 529.319741 0 0 1-110.026179 163.162853 509.873254 509.873254 0 0 1-723.272866 0A529.916782 529.916782 0 0 1 39.263155 582.393832 516.099541 516.099541 0 0 1 0.029013 383.749669a484.371062 484.371062 0 0 1 40.087058-198.302997 529.319741 529.319741 0 0 1 110.026179-163.162853 507.485089 507.485089 0 0 1 362.489349-149.942653 494.691347 494.691347 0 0 1 198.729454 40.257641 503.902841 503.902841 0 0 1 162.054062 109.685012 530.940282 530.940282 0 0 1 110.026179 163.162853A486.673935 486.673935 0 0 1 1023.528352 383.749669a505.096923 505.096923 0 0 1-40.939974 198.644163zM860.621374 383.749669a76.76245 76.76245 0 0 0-75.909535-76.080117H237.992609a76.080117 76.080117 0 0 0 0 152.074943H784.711839a76.165409 76.165409 0 0 0 75.909535-75.994826z"  horiz-adv-x="1024" />

    
    <glyph glyph-name="unlock" unicode="&#59337;" d="M832 432H332V656c0 30.9 25.1 56 56 56h248c30.9 0 56-25.1 56-56v-68c0-4.4 3.6-8 8-8h56c4.4 0 8 3.6 8 8v68c0 70.7-57.3 128-128 128H388c-70.7 0-128-57.3-128-128v-224h-68c-17.7 0-32-14.3-32-32v-384c0-17.7 14.3-32 32-32h640c17.7 0 32 14.3 32 32V400c0 17.7-14.3 32-32 32z m-40-376H232V360h560v-304zM484 195v-53c0-4.4 3.6-8 8-8h40c4.4 0 8 3.6 8 8v53c12.1 8.7 20 22.9 20 39 0 26.5-21.5 48-48 48s-48-21.5-48-48c0-16.1 7.9-30.3 20-39z"  horiz-adv-x="1024" />

    
    <glyph glyph-name="lock" unicode="&#59338;" d="M832 432h-68V656c0 70.7-57.3 128-128 128H388c-70.7 0-128-57.3-128-128v-224h-68c-17.7 0-32-14.3-32-32v-384c0-17.7 14.3-32 32-32h640c17.7 0 32 14.3 32 32V400c0 17.7-14.3 32-32 32zM332 656c0 30.9 25.1 56 56 56h248c30.9 0 56-25.1 56-56v-224H332V656z m460-600H232V360h560v-304zM484 195v-53c0-4.4 3.6-8 8-8h40c4.4 0 8 3.6 8 8v53c12.1 8.7 20 22.9 20 39 0 26.5-21.5 48-48 48s-48-21.5-48-48c0-16.1 7.9-30.3 20-39z"  horiz-adv-x="1024" />

    
    <glyph glyph-name="wendu2" unicode="&#59053;" d="M627-63c-121.5 0-220 98.5-220 220a220.038 220.038 0 0 0 130 200.8V741a90 90 0 0 0 180 0v-383.2A220.038 220.038 0 0 0 847 157c0-121.5-98.5-220-220-220z m30 377.18V741a30 30 0 0 1-60 0v-426.82a160 160 0 1 1 60 0zM627 23a129.992 129.992 0 0 0-15.211 259.091A29.987 29.987 0 1 0 619 223v-0.469a69.994 69.994 0 1 1 77.026-81.022A29.988 29.988 0 0 0 755.849 144h0.835A130 130 0 0 0 627 23z m0.5 326a10.5 10.5 0 0 0-10.5 10.5v361a10.5 10.5 0 0 0 21 0v-361a10.5 10.5 0 0 0-10.5-10.5zM447 590H267a30 30 0 0 0 0 60h180a30 30 0 0 0 0-60z m0 120H207a30 30 0 0 0 0 60h240a30 30 0 0 0 0-60z m0-360H317a30 30 0 0 0 0 60h130a30 30 0 0 0 0-60z m0 120H217a30 30 0 0 0 0 60h230a30 30 0 0 0 0-60z"  horiz-adv-x="1024" />

    
    <glyph glyph-name="dianya6" unicode="&#59908;" d="M512 896A511.5904 511.5904 0 0 1 0 384C0 100.898133 228.898133-128 512-128S1024 100.898133 1024 384 795.101867 896 512 896z m54.203733-784.5888H457.796267L263.509333 656.5888h97.8944l150.596267-445.781333h3.003733l150.596267 445.781333h97.8944l-197.290667-545.1776z"  horiz-adv-x="1024" />

    
    <glyph glyph-name="xiao-shijian" unicode="&#58896;" d="M512-93.866667A477.866667 477.866667 0 1 0 512 861.866667a477.866667 477.866667 0 0 0 0-955.733334z m0 102.4a375.466667 375.466667 0 1 1 0 750.933334 375.466667 375.466667 0 0 1 0-750.933334z m176.64 415.146667a51.2 51.2 0 1 0 0-102.4H512a51.2 51.2 0 0 0-51.2 51.2V599.552a51.2 51.2 0 1 0 102.4 0v-175.872h125.44z"  horiz-adv-x="1024" />

    
    <glyph glyph-name="ditu" unicode="&#58944;" d="M506.5 63.89999999999998c-6 0-11.9 2.1-16.7 6.4-3 2.7-73.7 66.1-145.6 154.9-42.5 52.5-76.5 103-100.9 150-31.5 60.5-47.5 115.9-47.5 164.6 0 83 32.3 161 91 219.7s136.7 91 219.7 91 161-32.3 219.7-91 91-136.7 91-219.7c0-50.3-16-106.7-47.4-167.6-24.5-47.4-58.5-97.8-101-149.8C596.9 134.39999999999998 526 72.60000000000002 523 70c-4.8-4-10.7-6.1-16.5-6.1z m0 736.6c-143.7 0-260.6-116.9-260.6-260.6 0-156.3 201.2-360 260.8-416.9 59.8 55.8 260.4 255.1 260.4 416.9 0 143.7-116.9 260.6-260.6 260.6zM506.5 440.4c-69.5 0-126 56.5-126 126s56.5 126 126 126 126-56.5 126-126-56.5-126-126-126z m0 202c-41.9 0-76-34.1-76-76s34.1-76 76-76 76 34.1 76 76-34.1 76-76 76zM924.4-61.39999999999998H88.6c-8.4 0-16.2 4.2-20.8 11.2-4.6 7-5.5 15.8-2.2 23.5l111.9 266.9c3.9 9.3 13 15.3 23.1 15.3h58.9c13.8 0 25-11.2 25-25s-11.2-25-25-25h-42.3l-90.9-216.9H887l-90 216.9h-45.6c-13.8 0-25 11.2-25 25s11.2 25 25 25h62.3c10.1 0 19.2-6.1 23.1-15.4l110.8-266.9c3.2-7.7 2.3-16.5-2.3-23.5-4.8-6.9-12.6-11.1-20.9-11.1z"  horiz-adv-x="1024" />

    
    <glyph glyph-name="danwei" unicode="&#58890;" d="M207.36 635.733333h116.053333v-116.053333H207.36zM361.813333 635.733333H477.866667v-116.053333H361.813333zM977.066667-0.853333h-31.573334V521.386667c0 67.413333-57.173333 122.026667-127.146666 122.026666h-204.8v81.066667c0 67.413333-54.613333 122.026667-122.026667 122.026667H194.56c-67.413333 0-122.026667-54.613333-122.026667-122.026667v-725.333333h-25.6c-21.333333 0-38.4-17.066667-38.4-38.4s17.066667-38.4 38.4-38.4h929.28c21.333333 0 38.4 17.066667 38.4 38.4 0.853333 20.48-16.213333 38.4-37.546666 38.4z m-440.32 0H149.333333v725.333333c0 22.186667 20.48 40.96 45.226667 40.96h297.813333c24.746667 0 45.226667-18.773333 45.226667-40.96v-725.333333z m331.093333 0H613.546667v563.2h203.946666c27.306667 0 49.493333-18.773333 49.493334-40.96v-522.24zM207.36 248.32h116.053333v-116.053333H207.36zM207.36 442.026667h116.053333v-116.053334H207.36zM361.813333 248.32H477.866667v-116.053333H361.813333zM361.813333 442.026667H477.866667v-116.053334H361.813333zM685.226667 248.32h116.053333v-116.053333H685.226667zM685.226667 442.026667h116.053333v-116.053334H685.226667z"  horiz-adv-x="1024" />

    
    <glyph glyph-name="xiugai" unicode="&#58880;" d="M723.339 485.875l-146.443 142.79-312.97-312.636-54.548-199.535v-0.33l199.199 55.415z m-23.866 265.107l-78.44-78.311 146.912-142.259 76.114 76.05c39.952 39.885 39.952 104.632 0 144.518-39.884 39.886-104.701 39.886-144.586 0.002zM155.243 81.84000000000003h718.78v-94.737h-718.78z"  horiz-adv-x="1024" />

    
    <glyph glyph-name="dianliu2" unicode="&#58915;" d="M373.66067 6.004938l-36.119929-88.855026c-5.05679-13.003175-11.558377-23.839153-18.059965-31.785538-7.223986-8.668783-20.22716-12.280776-40.454321-11.558378-20.22716 0.722399-34.675132 7.223986-43.343915 18.782364-9.391182 12.280776-13.003175 22.394356-13.003175 31.785538 0.722399 9.391182 2.167196 18.782363 6.501587 28.173545l150.258907 404.54321c7.223986 20.22716 15.892769 39.731922 24.561552 58.514285 8.668783 18.782363 20.949559 34.675132 36.119929 47.678307 15.17037 13.003175 36.842328 20.22716 65.738272 22.394356 26.006349 1.444797 46.955908-3.611993 63.571076-14.447971 16.615168-10.835979 29.618342-26.728748 39.731922-46.955909 10.11358-20.22716 19.504762-44.788713 29.618342-72.962257l137.978131-395.152028c3.611993-11.558377 5.779189-23.116755 5.779189-33.952734s-5.05679-21.671958-15.170371-32.507937c-10.11358-10.11358-23.839153-15.892769-41.176719-17.337566-17.337566-1.444797-30.340741 1.444797-39.009524 8.668783-8.668783 7.223986-15.17037 17.337566-19.504762 30.340741L635.891358 6.004938H373.66067z m223.221164 116.306173L523.919577 356.368254c-2.889594 7.946384-5.05679 13.725573-7.223986 17.337566-2.167196 3.611993-4.334392 5.779189-7.223986 5.779189s-5.05679-2.889594-7.946385-7.946385l-4.334391-13.725573L411.947795 122.311111h184.934039zM139.603527 376.595414c1.444797 152.426102 96.079012 296.183422 241.281129 348.918519 148.814109 53.457496 312.798589 10.11358 416.823986-109.804586 57.069489-66.46067 85.965432-152.426102 86.687831-239.113933 0.722399-87.410229 136.533333-87.410229 135.810934 0-2.167196 213.829982-135.810935 403.098413-335.915344 477.505468-194.32522 72.239859-426.215168 9.391182-559.136507-150.258907C47.858907 611.374956 5.959788 497.958377 4.514991 376.595414c-0.722399-86.687831 134.366138-86.687831 135.088536 0z"  horiz-adv-x="1024" />

    
    <glyph glyph-name="shezhi3" unicode="&#59435;" d="M828.373333 384A105.173333 105.173333 0 0 0 896 482.133333a391.466667 391.466667 0 0 1-42.666667 103.893334A104.96 104.96 0 0 0 714.026667 725.333333a391.466667 391.466667 0 0 1-103.893334 42.666667 104.96 104.96 0 0 0-196.266666 0 391.466667 391.466667 0 0 1-103.893334-42.666667A104.96 104.96 0 0 0 170.666667 586.026667a384 384 0 0 1-42.666667-103.893334 104.96 104.96 0 0 0 0-196.266666 391.466667 391.466667 0 0 1 42.666667-103.893334A104.96 104.96 0 0 0 309.973333 42.666667a391.466667 391.466667 0 0 1 103.893334-42.666667 104.96 104.96 0 0 0 196.266666 0 391.466667 391.466667 0 0 1 103.893334 42.666667A104.96 104.96 0 0 0 853.333333 181.973333a391.466667 391.466667 0 0 1 42.666667 103.893334 105.173333 105.173333 0 0 0-67.626667 98.133333zM512 278.613333A105.386667 105.386667 0 1 0 617.386667 384 105.386667 105.386667 0 0 0 512 278.613333z"  horiz-adv-x="1024" />

    
    <glyph glyph-name="jizhan" unicode="&#58886;" d="M147.66 576.1a227.52 227.52 0 0 0 65 159.76 36 36 0 1 1-51.53 50.28 300.54 300.54 0 0 1 3.26-423.37 36 36 0 1 1 50.76 51.07 227.21 227.21 0 0 0-67.49 162.26z m536.93 136.32a36 36 0 0 1-1-50.9 123.36 123.36 0 0 0-2.22-173.09A36 36 0 1 1 732 437.26a195.36 195.36 0 0 1 3.5 274.12 36 36 0 0 1-50.91 1.04zM864.42 786.14a36 36 0 1 1-51.53-50.28 228.77 228.77 0 0 0-2.48-322 36 36 0 1 1 50.76-51.07 300.77 300.77 0 0 1 3.26 423.37zM344.5 437.52a36 36 0 0 1-0.26 50.91A123.36 123.36 0 0 0 342 661.52a36 36 0 1 1-51.94 49.87 195.36 195.36 0 0 1 3.5-274.12 36 36 0 0 1 50.91 0.26z m220.89 54.64a96 96 0 1 1-107.5 0.58L296.23 48.58000000000004a36.11 36.11 0 0 1 21.52-46.14A36.11 36.11 0 0 1 363.89 24l34.23 94H625l35-96.3a32.63 32.63 0 0 1 41.7-19.45l6.51 2.37a32.63 32.63 0 0 1 19.45 41.7z m-53.85-62.55L555.07 310H468zM421.41 182l23.29 64h133.66l23.29-64z"  horiz-adv-x="1024" />

    
    <glyph glyph-name="wendu3" unicode="&#59382;" d="M512 813c46.9 0 85-38.1 85-85v-368.8l24-14.6c30.3-18.4 55.6-44.4 73.2-75.1C712.4 237.8 722 201.7 722 165c0-56-21.8-108.7-61.4-148.4C621-23 568.3-44.9 512.3-45h-0.3c-28.2 0-55.6 5.6-81.5 16.5-25 10.6-47.5 25.8-66.8 45.1-19.4 19.4-34.5 41.8-45.2 66.8-11 25.8-16.5 53.3-16.5 81.5 0 36.7 9.6 72.8 27.7 104.4 17.6 30.7 43 56.7 73.2 75.1l24 14.6V728c0.1 46.9 38.2 85 85.1 85m0 50c-74.6 0-135-60.4-135-135v-340.7C302.1 341.6 252 259.2 252 165c0-143.2 116.9-260 260-260h0.4C655.8-94.8 772 21.5 772 165c0 94.2-50.1 176.6-125 222.2V728c0 74.6-60.4 135-135 135z m25-612.9V536.6c0 13.8-11.2 25-25 25s-25-11.2-25-25v-286.5c-37.5-10.8-65-45.4-65-86.5 0-49.7 40.3-90 90-90s90 40.3 90 90c0 41-27.5 75.7-65 86.5z"  horiz-adv-x="1024" />

    
    <glyph glyph-name="sousuo" unicode="&#58929;" d="M780.8 196.266667c44.8 61.866667 68.266667 138.666667 68.266667 215.466666 0 206.933333-168.533333 375.466667-375.466667 375.466667S100.266667 618.666667 100.266667 411.733333s168.533333-375.466667 375.466666-375.466666c61.866667 0 123.733333 17.066667 179.2 44.8l-64 64c-36.266667-14.933333-74.666667-23.466667-115.2-23.466667-160 0-290.133333 130.133333-290.133333 290.133333s128 290.133333 288 290.133334 290.133333-130.133333 290.133333-290.133334c0-70.4-25.6-140.8-74.666666-192l-25.6-25.6 4.266666-4.266666 202.666667-202.666667 59.733333 59.733333-149.333333 149.333334z"  horiz-adv-x="1024" />

    
    <glyph glyph-name="sousuo1" unicode="&#58938;" d="M480 64c-194.41 0-352 157.59-352 352s157.59 352 352 352 352-157.59 352-352-157.59-352-352-352z m0 85.333c147.285 0 266.667 119.382 266.667 266.667S627.285 682.667 480 682.667 213.333 563.285 213.333 416 332.715 149.333 480 149.333zM682.667 151.125l60.33 60.331L890.048 68.16l-60.33-60.352z"  horiz-adv-x="1024" />

    
    <glyph glyph-name="signal" unicode="&#59049;" d="M112.88 206.36900000000003h155.428v-244.244h-155.428v244.244zM334.921 339.591h155.428v-377.467h-155.428v377.467zM579.164 495.02h133.223v-532.895h-133.223v532.895zM801.202 650.447h155.428v-688.323h-155.428v688.323zM1023.242 805.875h155.427v-843.75h-155.428v843.75z"  horiz-adv-x="1294" />

    
    <glyph glyph-name="sousuo2" unicode="&#59093;" d="M682.66 162.693l50.647 50.647 273.162-273.203-50.585-50.606zM417.198 141.25c186.409 0 337.551 151.143 337.551 337.552S603.607 816.374 417.178 816.374 79.626 665.21 79.626 478.802 230.79 141.25 417.198 141.25z m0-79.626C186.818 61.644 0 248.422 0 478.822 0 709.182 186.819 896 417.198 896c230.4 0 417.178-186.819 417.178-417.198 0-230.4-186.778-417.178-417.178-417.178z"  horiz-adv-x="1024" />

    
    <glyph glyph-name="xiaoshi2" unicode="&#58972;" d="M489.984 640h-19.456c-23.04 0-41.472-19.968-41.472-44.032v-423.424c0-24.576 18.432-44.544 41.472-44.544h19.456c23.04 0 41.472 19.968 41.472 44.544V595.968c0 24.064-18.432 44.032-41.472 44.032z m-236.544-334.848h-19.456c-23.04 0-41.472-19.968-41.472-44.544v-88.576c0-24.576 18.944-44.544 41.472-44.544h19.456c23.04 0 41.984 19.968 41.984 44.544V261.12c-0.512 24.064-18.944 44.032-41.984 44.032z m472.576 157.696h-19.456c-23.04 0-41.984-19.968-41.984-44.032v-246.272c0-24.576 18.432-44.032 41.984-44.032h19.456c23.04 0 41.984 19.968 41.984 44.032v245.76c0 24.576-18.432 44.544-41.984 44.544zM512 896C229.376 896 0 666.624 0 384s229.376-512 512-512 512 229.376 512 512-229.376 512-512 512z m0-960A448.170667 448.170667 0 0 0 64 384 448.170667 448.170667 0 0 0 512 832 448.170667 448.170667 0 0 0 960 384 448.170667 448.170667 0 0 0 512-64z"  horiz-adv-x="1024" />

    
    <glyph glyph-name="wendu4" unicode="&#58885;" d="M627-63c-121.5 0-220 98.5-220 220a220.038 220.038 0 0 0 130 200.8V741a90 90 0 0 0 180 0v-383.2A220.038 220.038 0 0 0 847 157c0-121.5-98.5-220-220-220z m30 377.18V741a30 30 0 0 1-60 0v-426.82a160 160 0 1 1 60 0zM627 23a129.992 129.992 0 0 0-15.211 259.091A29.987 29.987 0 1 0 619 223v-0.469a69.994 69.994 0 1 1 77.026-81.022A29.988 29.988 0 0 0 755.849 144h0.835A130 130 0 0 0 627 23z m0.5 326a10.5 10.5 0 0 0-10.5 10.5v361a10.5 10.5 0 0 0 21 0v-361a10.5 10.5 0 0 0-10.5-10.5zM447 590H267a30 30 0 0 0 0 60h180a30 30 0 0 0 0-60z m0 120H207a30 30 0 0 0 0 60h240a30 30 0 0 0 0-60z m0-360H317a30 30 0 0 0 0 60h130a30 30 0 0 0 0-60z m0 120H217a30 30 0 0 0 0 60h230a30 30 0 0 0 0-60z"  horiz-adv-x="1024" />

    
    <glyph glyph-name="jihuo4" unicode="&#58904;" d="M509.5 578.2c113.2 0 205.3-92.1 205.3-205.3 0-70.6-35.8-135.4-95.8-173.4-22.2-14-35.4-38-35.4-64.1V101H435.5v34.5c0 26.1-13.3 50.1-35.4 64.1-63.9 40.5-100.5 112.5-95.3 187.9 7.1 104 94.5 187.8 198.9 190.7h5.8m0 60c-2.5 0-5 0-7.6-0.1-135.3-3.8-247.8-111.6-257.1-246.6-7-102.1 44-192.6 123.1-242.7 4.6-2.9 7.5-7.9 7.5-13.4V41h268.1v94.5c0 5.5 2.9 10.5 7.5 13.4 74.3 47 123.7 129.7 123.7 224.1 0.1 146.5-118.7 265.2-265.2 265.2zM694.5 101h-370c-16.5 0-30-13.5-30-30s13.5-30 30-30h370c16.5 0 30 13.5 30 30s-13.5 30-30 30zM648.4-4H370.6c-16.5 0-30-13.5-30-30s13.5-30 30-30h277.8c16.5 0 30 13.5 30 30s-13.5 30-30 30zM509.3 832c-16.5 0-30-13.5-30-30v-80c0-16.5 13.5-30 30-30s30 13.5 30 30V802c0 16.5-13.5 30-30 30zM206 679.1c-7.7 0-15.4-2.9-21.2-8.8-11.7-11.7-11.7-30.8 0-42.4l56.6-56.6c5.8-5.8 13.5-8.8 21.2-8.8 7.7 0 15.4 2.9 21.2 8.8 11.7 11.7 11.7 30.8 0 42.4l-56.6 56.6c-5.9 5.9-13.5 8.8-21.2 8.8zM818 680c-7.7 0-15.4-2.9-21.2-8.8l-56.6-56.6c-11.7-11.7-11.7-30.8 0-42.4 5.8-5.8 13.5-8.8 21.2-8.8s15.4 2.9 21.2 8.8l56.6 56.6c11.7 11.7 11.7 30.8 0 42.4-5.8 5.9-13.5 8.8-21.2 8.8z"  horiz-adv-x="1024" />

    


  </font>
</defs>
</svg>
